<?xml version="1.0" encoding="UTF-8"?>
<svg version="1.1" xmlns="http://www.w3.org/2000/svg" width="1000" height="1000">
<path d="M0 0 C330 0 660 0 1000 0 C1000 330 1000 660 1000 1000 C670 1000 340 1000 0 1000 C0 670 0 340 0 0 Z " fill="#FEFEFE" transform="translate(0,0)"/>
<path d="M0 0 C62.7 0 125.4 0 190 0 C189.2025175 3.98741251 188.45681421 6.45674012 186.75 10 C183.26805097 17.47272156 180.4163153 25.16090603 177.5625 32.890625 C174.69778625 40.62938958 171.6547622 48.22546876 168.359375 55.79296875 C166.82261041 59.4184967 165.4925822 63.08604865 164.1796875 66.796875 C162.62249495 71.02501372 160.9354628 75.19664066 159.25 79.375 C153.18335724 94.43883084 147.13683504 109.58949488 142 125 C141.34 125 140.68 125 140 125 C137.19659277 138.44133644 137.0547559 150.54634476 141.02734375 163.66015625 C141.93402806 166.77346984 142.53647065 169.79432857 143 173 C143.66 173 144.32 173 145 173 C146.13498853 174.85725396 147.26837212 176.71550404 148.39453125 178.578125 C157.85241325 192.84548957 170.56982035 199.40838091 186.77751923 203.36930656 C191.82735365 204.3576437 196.75204057 204.42346229 201.88378906 204.40063477 C203.00410522 204.40761383 204.12442139 204.4145929 205.27868652 204.42178345 C208.94107816 204.44160009 212.6031848 204.44125943 216.265625 204.44140625 C218.8300654 204.45319173 221.39449898 204.46655879 223.95892334 204.48143005 C231.3689555 204.52116249 238.77891778 204.54095605 246.18902588 204.55760193 C256.27780844 204.58157873 266.36646137 204.62120049 276.45513153 204.67487907 C280.20858425 204.69115885 283.96190946 204.69498058 287.71539307 204.69789124 C290.02152729 204.70766938 292.32765952 204.71793296 294.63378906 204.72875977 C296.18939545 204.72493034 296.18939545 204.72493034 297.77642822 204.72102356 C303.53004129 204.76153691 308.48093516 205.3507164 314 207 C314 207.66 314 208.32 314 209 C314.56847656 209.17015625 315.13695312 209.3403125 315.72265625 209.515625 C329.81473087 213.93851319 339.98663195 223.9121007 346.875 237 C352.07679524 248.80223398 352.41877731 259.55583926 352.34057617 272.2409668 C352.33972875 274.17359911 352.34020728 276.10623238 352.34190369 278.03886414 C352.34276058 283.25714035 352.32518444 288.47520756 352.30418181 293.69343543 C352.28536391 299.15733246 352.28366055 304.62123486 352.28010559 310.0851593 C352.27080012 320.41921818 352.24620665 330.75318128 352.21605712 341.08719808 C352.17617931 355.06049038 352.16004613 369.03380908 352.14255047 383.00714397 C352.11438446 405.00483432 352.05460488 427.00232259 352 449 C293.92 449 235.84 449 176 449 C175.75 391.875 175.75 391.875 175.70214844 373.90966797 C175.66888441 368.54504119 175.66888441 368.54504119 175.63043213 363.18045044 C175.61592139 360.81109879 175.60905057 358.44169215 175.60845947 356.07229614 C175.76770688 333.31585114 175.76770688 333.31585114 167.5 312.4375 C166.9328125 311.50808594 166.365625 310.57867188 165.78125 309.62109375 C162.5794062 304.57766833 162.5794062 304.57766833 158 301 C158 300.34 158 299.68 158 299 C157.40703125 298.72671875 156.8140625 298.4534375 156.203125 298.171875 C154.07549405 297.04015641 152.5604433 295.82356287 150.75 294.25 C141.87923754 287.42504666 129.43355385 283.88626408 118.39852905 283.86196899 C117.74864977 283.85914771 117.0987705 283.85632643 116.42919791 283.85341966 C114.25926424 283.84511051 112.08938184 283.84373857 109.91943359 283.84228516 C108.3602077 283.83761409 106.80098316 283.83247004 105.24176025 283.82688904 C101.88658146 283.81562494 98.53141146 283.80718251 95.17621994 283.80076981 C89.86318431 283.79006505 84.55021179 283.7698124 79.23721313 283.74765015 C64.12968854 283.68581298 49.02216761 283.63177162 33.91455078 283.59863281 C25.56860415 283.58024576 17.22276336 283.55125795 8.87689459 283.5106281 C4.46508693 283.48962506 0.05341225 283.47411039 -4.35844803 283.47182083 C-8.51343624 283.46966202 -12.6681477 283.45366797 -16.82305145 283.42743111 C-18.34067378 283.42028315 -19.85832981 283.41811506 -21.37596512 283.42153358 C-32.58213834 283.44272786 -42.37471026 282.24302749 -52.4375 277 C-53.88962891 276.2575 -53.88962891 276.2575 -55.37109375 275.5 C-57.7610318 274.13635036 -59.92402525 272.80604896 -62 271 C-62 270.34 -62 269.68 -62 269 C-62.86625 268.62875 -62.86625 268.62875 -63.75 268.25 C-66.32939979 266.81700012 -68.06121592 265.21575324 -70 263 C-70 262.34 -70 261.68 -70 261 C-70.66 261 -71.32 261 -72 261 C-81.40165274 245.64593818 -87.83453376 229.06255196 -83.46240234 210.74804688 C-81.99931544 206.00555365 -80.03640463 201.52031546 -78 197 C-77.30381716 195.25343603 -76.61506799 193.5038694 -75.9375 191.75 C-74.46769486 188.11223227 -72.95356432 184.49370114 -71.4375 180.875 C-69.78692935 176.92973358 -68.208846 172.97477521 -66.734375 168.9609375 C-65.92191166 166.79148751 -65.0576886 164.64694074 -64.1875 162.5 C-62.49536002 158.29509575 -60.89203085 154.06065435 -59.3125 149.8125 C-56.72566946 142.87273993 -54.06534518 135.96276277 -51.375 129.0625 C-51.00286377 128.10384033 -50.63072754 127.14518066 -50.24731445 126.1574707 C-48.26029545 121.07668827 -46.16308869 116.07427035 -43.91992188 111.10180664 C-42.49534449 107.84698002 -41.27689209 104.52518993 -40.0625 101.1875 C-37.88794861 95.29895289 -35.58388287 89.48653286 -33.140625 83.703125 C-27.73957627 70.90337938 -22.80821143 57.88452352 -17.9375 44.875 C-17.69475342 44.22684326 -17.45200684 43.57868652 -17.2019043 42.91088867 C-15.94761976 39.55485261 -14.70344553 36.19532308 -13.46875 32.83203125 C-10.96791664 26.04757648 -8.39474093 19.35069911 -5.2734375 12.8203125 C-3.37187322 8.60887259 -1.71613732 4.29034329 0 0 Z " fill="#041D42" transform="translate(366,275)"/>
<path d="M0 0 C62.7 0 125.4 0 190 0 C190 0.99 190 1.98 190 3 C127.3 2.67 64.6 2.34 0 2 C-0.33 2.99 -0.66 3.98 -1 5 C-0.67 3.35 -0.34 1.7 0 0 Z " fill="#3E4B61" transform="translate(366,275)"/>
<path d="M0 0 C0.33 0 0.66 0 1 0 C0.98839844 0.59425781 0.97679687 1.18851562 0.96484375 1.80078125 C0.90346918 7.43847373 1.23335704 12.86647459 1.9765625 18.45703125 C2.00374708 21.40655836 1.24599327 23.35107538 0 26 C-0.33 26 -0.66 26 -1 26 C-2.29235715 21.08497242 -2.11135517 16.22709898 -2.0625 11.1875 C-2.05798828 10.30384766 -2.05347656 9.42019531 -2.04882812 8.50976562 C-2.03709866 6.33981441 -2.01916495 4.16989828 -2 2 C-1.34 2 -0.68 2 0 2 C0 1.34 0 0.68 0 0 Z " fill="#162A42" transform="translate(284,486)"/>
<path d="M0 0 C2 2 2 2 2 6 C2.66 6 3.32 6 4 6 C5.11328125 7.50390625 5.11328125 7.50390625 6.3125 9.5625 C8.69075623 13.53333853 11.27337512 17.26062873 14 21 C12.02 21.33 10.04 21.66 8 22 C7.26919734 20.02253397 6.60578253 18.01927511 6 16 C6.33 15.34 6.66 14.68 7 14 C6.401875 13.835 5.80375 13.67 5.1875 13.5 C1.83565573 11.2015925 0.96090094 7.85816285 0 4 C0 2.68 0 1.36 0 0 Z " fill="#253953" transform="translate(507,442)"/>
<path d="M0 0 C0.99 0.33 1.98 0.66 3 1 C3 2.32 3 3.64 3 5 C3.5775 5.28875 4.155 5.5775 4.75 5.875 C6.83333333 6.91666667 8.91666667 7.95833333 11 9 C10.34 10.32 9.68 11.64 9 13 C8.34 13 7.68 13 7 13 C7 12.34 7 11.68 7 11 C6.484375 10.773125 5.96875 10.54625 5.4375 10.3125 C2.07596873 8.5024447 -0.92911144 6.26003596 -4 4 C-3.01 3.67 -2.02 3.34 -1 3 C-0.67 2.01 -0.34 1.02 0 0 Z " fill="#1B2F4D" transform="translate(517,563)"/>
<path d="M0 0 C0.99 0 1.98 0 3 0 C4.37095624 3.69037278 3.60010967 5.70883835 2.0625 9.25 C1.68222656 10.14203125 1.30195313 11.0340625 0.91015625 11.953125 C0.60980469 12.62859375 0.30945313 13.3040625 0 14 C-0.66 13.34 -1.32 12.68 -2 12 C-1.6171896 7.9422098 -0.84527244 3.98485578 0 0 Z " fill="#ECF4F5" transform="translate(306,414)"/>
<path d="M0 0 C1.60080151 4.00200378 0.29279692 7.04556236 -1 11 C-1.66 11 -2.32 11 -3 11 C-3 11.99 -3 12.98 -3 14 C-3.99 14 -4.98 14 -6 14 C-5.52140759 12.39566191 -5.04210442 10.79153584 -4.5625 9.1875 C-4.29566406 8.29417969 -4.02882813 7.40085937 -3.75390625 6.48046875 C-3.19612127 4.64526945 -2.60655425 2.81966274 -2 1 C-1.34 0.67 -0.68 0.34 0 0 Z " fill="#2B3A52" transform="translate(318,399)"/>
<path d="M0 0 C0.87840996 3.09720845 0.99435406 4.90645403 0 8 C-0.66 8 -1.32 8 -2 8 C-1.67 8.99 -1.34 9.98 -1 11 C-1.9375 13.1875 -1.9375 13.1875 -3 15 C-3.66 15 -4.32 15 -5 15 C-5 15.99 -5 16.98 -5 18 C-5.66 18 -6.32 18 -7 18 C-5.06375702 11.79522136 -2.74390859 5.89174281 0 0 Z " fill="#404F66" transform="translate(356,300)"/>
<path d="M0 0 C0.66 0.33 1.32 0.66 2 1 C2.5625 3.25 2.5625 3.25 3 6 C3.185625 6.928125 3.37125 7.85625 3.5625 8.8125 C3.7790625 9.8953125 3.7790625 9.8953125 4 11 C1.04070881 8.24479785 -1.03681826 5.53372712 -3 2 C-2.01 2 -1.02 2 0 2 C0 1.34 0 0.68 0 0 Z " fill="#1F314A" transform="translate(531,577)"/>
<path d="M0 0 C0.66 0.99 1.32 1.98 2 3 C1.34 3 0.68 3 0 3 C0 5.64 0 8.28 0 11 C-1.98 11.99 -1.98 11.99 -4 13 C-3.52343588 11.20763933 -3.04366502 9.41613103 -2.5625 7.625 C-2.29566406 6.62726563 -2.02882813 5.62953125 -1.75390625 4.6015625 C-1 2 -1 2 0 0 Z " fill="#33435A" transform="translate(291,464)"/>
<path d="M0 0 C1.32 0.66 2.64 1.32 4 2 C3.67 2.66 3.34 3.32 3 4 C3.99 4.33 4.98 4.66 6 5 C5.01 5.33 4.02 5.66 3 6 C-0.1875 4.0625 -0.1875 4.0625 -3 2 C-2.01 1.34 -1.02 0.68 0 0 Z " fill="#1E304B" transform="translate(309,545)"/>
<path d="M0 0 C1.75 0.125 1.75 0.125 4 1 C6.25 4.0625 6.25 4.0625 8 7 C5.525 6.01 5.525 6.01 3 5 C3 4.34 3 3.68 3 3 C2.01 2.67 1.02 2.34 0 2 C0 1.34 0 0.68 0 0 Z " fill="#1B3147" transform="translate(698,496)"/>
<path d="M0 0 C0.66 0.99 1.32 1.98 2 3 C1.5390625 5.04296875 1.5390625 5.04296875 0.625 7.1875 C0.32851563 7.90292969 0.03203125 8.61835938 -0.2734375 9.35546875 C-0.51320313 9.89816406 -0.75296875 10.44085938 -1 11 C-1.33 11 -1.66 11 -2 11 C-2.28571429 3.57142857 -2.28571429 3.57142857 0 0 Z " fill="#192D46" transform="translate(535,321)"/>
<path d="M0 0 C0.33 1.32 0.66 2.64 1 4 C1.66 3.34 2.32 2.68 3 2 C2.67 3.65 2.34 5.3 2 7 C0.68 7.33 -0.64 7.66 -2 8 C-1.125 1.125 -1.125 1.125 0 0 Z " fill="#031637" transform="translate(507,386)"/>
<path d="M0 0 C1.98 0 3.96 0 6 0 C5.67 0.99 5.34 1.98 5 3 C4.01 3 3.02 3 2 3 C-0.10820797 3.3185177 -0.10820797 3.3185177 -2 4 C-2.33 4.66 -2.66 5.32 -3 6 C-3 5.01 -3 4.02 -3 3 C-2.34 3 -1.68 3 -1 3 C-0.67 2.01 -0.34 1.02 0 0 Z " fill="#122B4D" transform="translate(549,278)"/>
<path d="M0 0 C0.78503906 0.07863281 1.57007813 0.15726562 2.37890625 0.23828125 C4.4375 0.6875 4.4375 0.6875 6.4375 2.6875 C4.66700311 2.74160687 2.89603151 2.78034119 1.125 2.8125 C-0.35419922 2.84730469 -0.35419922 2.84730469 -1.86328125 2.8828125 C-4.5625 2.6875 -4.5625 2.6875 -7.5625 0.6875 C-4.5419408 -0.31935307 -3.09173734 -0.34126261 0 0 Z " fill="#53647C" transform="translate(673.5625,480.3125)"/>
<path d="M0 0 C1.69752187 0.25245197 3.38471545 0.57645775 5.0625 0.9375 C5.98160156 1.13214844 6.90070312 1.32679688 7.84765625 1.52734375 C8.91306641 1.76130859 8.91306641 1.76130859 10 2 C10 2.33 10 2.66 10 3 C8.54207116 3.05399736 7.08357288 3.09279177 5.625 3.125 C4.81289063 3.14820313 4.00078125 3.17140625 3.1640625 3.1953125 C1 3 1 3 -1 1 C-0.67 0.67 -0.34 0.34 0 0 Z " fill="#3B4A5E" transform="translate(538,475)"/>
<path d="M0 0 C0.66 1.32 1.32 2.64 2 4 C0.824375 4.4640625 0.824375 4.4640625 -0.375 4.9375 C-2.92330128 5.92875038 -2.92330128 5.92875038 -5 7 C-4.34 5.02 -3.68 3.04 -3 1 C-2.34 1.33 -1.68 1.66 -1 2 C-0.67 1.34 -0.34 0.68 0 0 Z " fill="#223855" transform="translate(365,284)"/>
<path d="M0 0 C0.99 0.66 1.98 1.32 3 2 C3 2.99 3 3.98 3 5 C1.35 5.66 -0.3 6.32 -2 7 C-1.125 2.25 -1.125 2.25 0 0 Z " fill="#2D3F5A" transform="translate(301,440)"/>
<path d="M0 0 C1.5625 1.25 1.5625 1.25 3 3 C2.6875 5.1875 2.6875 5.1875 2 7 C1.34 7 0.68 7 0 7 C-1.125 2.25 -1.125 2.25 0 0 Z " fill="#E2ECEF" transform="translate(529,581)"/>
<path d="M0 0 C1.32 1.32 2.64 2.64 4 4 C3.67 4.66 3.34 5.32 3 6 C2.01 5.67 1.02 5.34 0 5 C0 3.35 0 1.7 0 0 Z M-1 5 C-1 8 -1 8 -1 8 Z " fill="#233551" transform="translate(706,503)"/>
<path d="M0 0 C0.66 0.99 1.32 1.98 2 3 C1.33333333 5 0.66666667 7 0 9 C-0.66 9 -1.32 9 -2 9 C-1.34 6.03 -0.68 3.06 0 0 Z " fill="#D7DDE7" transform="translate(511,388)"/>
<path d="M0 0 C1.125 1.75 1.125 1.75 2 4 C1.125 6.25 1.125 6.25 0 8 C-0.66 8 -1.32 8 -2 8 C-1.34 5.36 -0.68 2.72 0 0 Z " fill="#D1DAE2" transform="translate(518,370)"/>
<path d="M0 0 C0.33 0.66 0.66 1.32 1 2 C1.66 2 2.32 2 3 2 C2.75 3.875 2.75 3.875 2 6 C-0.0625 7.25 -0.0625 7.25 -2 8 C-1.34 5.36 -0.68 2.72 0 0 Z " fill="#D9E0E8" transform="translate(521,362)"/>
<path d="M0 0 C-0.75 5.75 -0.75 5.75 -3 8 C-3.33 5.69 -3.66 3.38 -4 1 C-2 0 -2 0 0 0 Z " fill="#CFD7DF" transform="translate(341,338)"/>
</svg>
