<svg width="324" height="172" viewBox="0 0 324 172" fill="none" xmlns="http://www.w3.org/2000/svg">
<g clip-path="url(#clip0_577_155)">
<g clip-path="url(#clip1_577_155)">
<rect x="133.79" y="13" width="280.119" height="176.075" rx="9.60408" transform="rotate(44.7883 133.79 13)" fill="url(#paint0_linear_577_155)"/>
<path d="M43.1133 131.295C43.3149 131.04 43.3846 130.757 43.3223 130.445C43.2617 130.132 43.0894 129.835 42.8054 129.553C42.602 129.351 42.3941 129.208 42.1816 129.126C41.9707 129.041 41.7688 129.014 41.576 129.043C41.3864 129.073 41.2219 129.158 41.0825 129.299C40.9656 129.416 40.8921 129.545 40.8621 129.685C40.8337 129.827 40.8358 129.971 40.8685 130.119C40.9044 130.267 40.9556 130.412 41.022 130.555C41.0901 130.696 41.1605 130.827 41.2333 130.948L41.5925 131.554C41.7122 131.75 41.8223 131.963 41.9228 132.194C42.0233 132.425 42.091 132.665 42.1256 132.915C42.1603 133.164 42.1419 133.411 42.0705 133.657C42.0007 133.905 41.8552 134.141 41.6342 134.363C41.3555 134.644 41.0354 134.821 40.6739 134.895C40.3141 134.97 39.9345 134.935 39.5352 134.788C39.1376 134.643 38.7451 134.379 38.3578 133.994C37.9867 133.626 37.724 133.248 37.5699 132.861C37.4157 132.475 37.3693 132.097 37.4306 131.728C37.4936 131.358 37.6651 131.016 37.9453 130.702L38.6957 131.446C38.5324 131.64 38.4423 131.847 38.4255 132.067C38.4118 132.288 38.456 132.506 38.5581 132.723C38.6634 132.939 38.8121 133.143 39.0041 133.334C39.2155 133.543 39.4363 133.697 39.6666 133.794C39.9001 133.891 40.1237 133.928 40.3374 133.903C40.5528 133.876 40.7406 133.782 40.9007 133.621C41.0465 133.474 41.1239 133.312 41.1329 133.135C41.1435 132.96 41.1082 132.771 41.0271 132.569C40.9476 132.368 40.8423 132.156 40.7112 131.933L40.284 131.192C39.9944 130.69 39.8375 130.219 39.8134 129.778C39.7908 129.339 39.951 128.947 40.2937 128.602C40.5773 128.316 40.9022 128.144 41.2686 128.085C41.6349 128.026 42.0089 128.068 42.3904 128.213C42.7736 128.357 43.1314 128.593 43.4638 128.923C43.7995 129.256 44.0371 129.609 44.1768 129.982C44.318 130.356 44.3604 130.72 44.3038 131.074C44.2488 131.426 44.0924 131.738 43.8346 132.011L43.1133 131.295ZM42.6015 138.192C42.2417 137.835 42.0128 137.446 41.9147 137.025C41.8199 136.604 41.8465 136.181 41.9944 135.754C42.1424 135.327 42.4014 134.928 42.7714 134.555C43.1462 134.177 43.548 133.915 43.9767 133.767C44.407 133.617 44.8322 133.589 45.2521 133.683C45.6721 133.776 46.0572 133.996 46.4074 134.344C46.6897 134.624 46.8894 134.926 47.0064 135.251C47.1249 135.574 47.1591 135.896 47.1088 136.218C47.0602 136.541 46.9246 136.84 46.7022 137.116L45.9978 136.417C46.1321 136.204 46.1923 135.966 46.1784 135.702C46.1662 135.44 46.0447 135.195 45.814 134.966C45.6123 134.766 45.3827 134.643 45.1253 134.599C44.8711 134.555 44.6052 134.589 44.3274 134.701C44.0513 134.812 43.7819 134.999 43.5192 135.264C43.2501 135.535 43.059 135.81 42.9459 136.088C42.8327 136.367 42.7976 136.635 42.8403 136.892C42.8847 137.15 43.0093 137.381 43.2143 137.585C43.3514 137.721 43.5005 137.819 43.6615 137.88C43.8257 137.94 43.993 137.961 44.1634 137.941C44.3353 137.922 44.5031 137.861 44.6667 137.758L45.3711 138.457C45.1066 138.672 44.8153 138.809 44.4972 138.868C44.1791 138.927 43.8566 138.902 43.5298 138.792C43.2047 138.684 42.8952 138.484 42.6015 138.192ZM47.8923 138.913L45.7011 141.12L44.9773 140.402L49.898 135.445L50.6121 136.153L48.7812 137.998L48.8272 138.043C49.113 137.93 49.4039 137.903 49.6999 137.963C49.996 138.023 50.2884 138.196 50.5773 138.483C50.8322 138.736 51.0029 139.01 51.0892 139.304C51.1771 139.599 51.1702 139.903 51.0684 140.215C50.9699 140.528 50.7669 140.839 50.4593 141.148L48.1119 143.513L47.3882 142.795L49.6491 140.517C49.9198 140.244 50.0594 139.963 50.068 139.674C50.0782 139.383 49.9582 139.113 49.7081 138.865C49.537 138.695 49.3477 138.579 49.1401 138.517C48.9341 138.457 48.7226 138.459 48.5058 138.522C48.2922 138.586 48.0877 138.716 47.8923 138.913ZM50.5693 146.101C50.2207 145.755 49.9958 145.374 49.8946 144.956C49.7934 144.538 49.8135 144.115 49.955 143.685C50.0965 143.255 50.3579 142.848 50.7391 142.464C51.1219 142.078 51.5285 141.812 51.9589 141.666C52.3892 141.52 52.8135 141.496 53.2319 141.594C53.6503 141.692 54.0338 141.914 54.3823 142.26C54.7309 142.606 54.9558 142.988 55.057 143.406C55.1582 143.823 55.1373 144.248 54.9942 144.679C54.8511 145.111 54.5881 145.519 54.2053 145.905C53.824 146.289 53.4191 146.553 52.9903 146.698C52.5616 146.843 52.138 146.866 51.7197 146.768C51.3013 146.67 50.9178 146.447 50.5693 146.101ZM51.1748 145.496C51.4007 145.721 51.6471 145.847 51.9141 145.875C52.1811 145.903 52.4486 145.853 52.7166 145.725C52.9863 145.598 53.2396 145.416 53.4767 145.177C53.7121 144.94 53.8921 144.686 54.0165 144.415C54.1441 144.144 54.1938 143.875 54.1654 143.607C54.1371 143.338 54.01 143.092 53.7841 142.868C53.5565 142.642 53.3077 142.515 53.0375 142.487C52.7689 142.461 52.499 142.511 52.2277 142.639C51.9597 142.767 51.708 142.95 51.4725 143.187C51.2354 143.426 51.0539 143.68 50.9279 143.949C50.8035 144.22 50.7562 144.488 50.7862 144.755C50.8177 145.023 50.9472 145.27 51.1748 145.496ZM54.6763 150.178C54.3277 149.832 54.1028 149.45 54.0016 149.033C53.9004 148.615 53.9205 148.191 54.062 147.762C54.2035 147.332 54.4649 146.925 54.8461 146.541C55.2289 146.155 55.6355 145.889 56.0659 145.743C56.4962 145.597 56.9205 145.573 57.3389 145.671C57.7573 145.769 58.1408 145.991 58.4893 146.337C58.8379 146.683 59.0628 147.065 59.164 147.482C59.2652 147.9 59.2443 148.325 59.1012 148.756C58.9581 149.187 58.6951 149.596 58.3123 149.982C57.931 150.366 57.5261 150.63 57.0973 150.775C56.6686 150.919 56.245 150.943 55.8267 150.844C55.4083 150.746 55.0248 150.524 54.6763 150.178ZM55.2818 149.573C55.5077 149.797 55.7541 149.923 56.0211 149.951C56.2881 149.979 56.5556 149.929 56.8236 149.801C57.0933 149.675 57.3466 149.492 57.5837 149.253C57.8191 149.016 57.9991 148.762 58.1235 148.492C58.2511 148.221 58.3008 147.952 58.2724 147.683C58.2441 147.415 58.117 147.169 57.8911 146.944C57.6635 146.719 57.4147 146.592 57.1445 146.564C56.8759 146.537 56.606 146.588 56.3347 146.716C56.0667 146.844 55.815 147.027 55.5795 147.264C55.3424 147.503 55.1609 147.757 55.0349 148.026C54.9105 148.296 54.8632 148.565 54.8932 148.832C54.9247 149.1 55.0542 149.347 55.2818 149.573ZM62.9361 148.387L58.0154 153.344L57.2917 152.625L62.2124 147.668L62.9361 148.387ZM66.2529 154.139L65.6762 154.72L63.5752 152.635L64.1519 152.054L66.2529 154.139ZM61.0374 156.344L65.1556 152.195C65.3863 151.962 65.6285 151.82 65.8824 151.768C66.1378 151.714 66.3871 151.732 66.6302 151.823C66.8749 151.912 67.0957 152.054 67.2925 152.25C67.4378 152.394 67.55 152.529 67.6292 152.656C67.7101 152.781 67.7659 152.878 67.7967 152.947L67.0458 153.365C67.0216 153.321 66.9892 153.267 66.9488 153.201C66.9099 153.134 66.8526 153.062 66.7768 152.987C66.6009 152.813 66.4317 152.731 66.2694 152.743C66.1087 152.756 65.9466 152.845 65.7832 153.01L61.7611 157.062L61.0374 156.344ZM64.6905 160.119C64.3242 159.755 64.0864 159.364 63.9772 158.945C63.8711 158.525 63.888 158.102 64.0279 157.673C64.171 157.245 64.434 156.838 64.8168 156.453C65.1949 156.072 65.599 155.807 66.0294 155.657C66.4613 155.509 66.8865 155.481 67.3048 155.573C67.7248 155.666 68.1074 155.884 68.4528 156.227C68.6625 156.435 68.8314 156.672 68.9594 156.937C69.0874 157.201 69.156 157.486 69.1651 157.789C69.1743 158.093 69.1063 158.409 68.9612 158.736C68.8177 159.061 68.5786 159.392 68.2438 159.729L67.9891 159.986L65.0337 157.052L65.5719 156.51L67.8181 158.74C68.0071 158.549 68.1358 158.342 68.2041 158.119C68.274 157.893 68.2812 157.668 68.2257 157.443C68.1718 157.22 68.0513 157.015 67.8641 156.83C67.6608 156.628 67.4336 156.502 67.1826 156.451C66.9349 156.401 66.6905 156.414 66.4497 156.492C66.212 156.57 66.0011 156.702 65.8169 156.888L65.3964 157.311C65.1497 157.56 64.9835 157.815 64.8976 158.075C64.8134 158.338 64.8047 158.593 64.8715 158.842C64.9399 159.09 65.0798 159.318 65.2912 159.528C65.4284 159.664 65.5727 159.769 65.7241 159.842C65.8771 159.914 66.034 159.951 66.1948 159.954C66.3555 159.957 66.5154 159.922 66.6743 159.849L67.2368 160.652C66.9817 160.799 66.7078 160.878 66.4153 160.889C66.1259 160.9 65.8331 160.841 65.5368 160.714C65.2437 160.586 64.9616 160.388 64.6905 160.119ZM68.691 164.09C68.3247 163.726 68.0869 163.335 67.9776 162.916C67.8716 162.496 67.8885 162.073 68.0284 161.644C68.1715 161.216 68.4345 160.809 68.8173 160.424C69.1954 160.043 69.5995 159.778 70.0299 159.628C70.4618 159.48 70.8869 159.452 71.3053 159.544C71.7253 159.637 72.1079 159.855 72.4532 160.198C72.663 160.406 72.8319 160.643 72.9599 160.908C73.0879 161.172 73.1565 161.457 73.1656 161.761C73.1748 162.064 73.1068 162.38 72.9617 162.707C72.8182 163.032 72.5791 163.363 72.2443 163.7L71.9896 163.957L69.0342 161.023L69.5724 160.481L71.8186 162.711C72.0076 162.52 72.1363 162.313 72.2046 162.09C72.2745 161.864 72.2817 161.639 72.2262 161.414C72.1723 161.191 72.0518 160.986 71.8646 160.801C71.6613 160.599 71.4341 160.473 71.1831 160.422C70.9354 160.372 70.691 160.385 70.4502 160.463C70.2125 160.542 70.0016 160.673 69.8174 160.859L69.3969 161.282C69.1502 161.531 68.9839 161.786 68.8981 162.046C68.8139 162.309 68.8051 162.564 68.872 162.813C68.9404 163.061 69.0803 163.289 69.2917 163.499C69.4289 163.635 69.5732 163.74 69.7246 163.813C69.8776 163.885 70.0345 163.922 70.1953 163.925C70.356 163.928 70.5159 163.893 70.6748 163.82L71.2373 164.623C70.9822 164.77 70.7083 164.849 70.4158 164.86C70.1264 164.871 69.8336 164.812 69.5373 164.685C69.2442 164.557 68.9621 164.359 68.691 164.09ZM76.7391 166.351L75.9679 165.816C76.0237 165.704 76.0594 165.581 76.075 165.446C76.0922 165.313 76.0748 165.172 76.0228 165.024C75.9708 164.877 75.8698 164.728 75.7197 164.579C75.5148 164.376 75.2981 164.252 75.0696 164.208C74.8427 164.162 74.658 164.211 74.5155 164.355C74.3921 164.479 74.3388 164.625 74.3555 164.792C74.3722 164.959 74.459 165.168 74.6159 165.42L75.0719 166.142C75.3355 166.561 75.4696 166.936 75.474 167.267C75.4784 167.598 75.3501 167.895 75.089 168.158C74.868 168.381 74.6064 168.515 74.3043 168.561C74.0055 168.607 73.6926 168.566 73.3657 168.437C73.0405 168.31 72.7278 168.097 72.4277 167.799C72.0113 167.386 71.7598 166.96 71.6729 166.521C71.5877 166.081 71.6786 165.667 71.9457 165.278L72.7509 165.866C72.6135 166.092 72.5661 166.319 72.6087 166.547C72.653 166.773 72.784 166.995 73.0019 167.211C73.2391 167.446 73.4775 167.585 73.7173 167.628C73.9586 167.669 74.1505 167.617 74.2931 167.474C74.4084 167.358 74.4617 167.217 74.4531 167.051C74.4461 166.887 74.3738 166.697 74.2363 166.48L73.744 165.718C73.4755 165.294 73.3439 164.914 73.3491 164.576C73.3559 164.24 73.4906 163.94 73.7533 163.675C73.9711 163.456 74.2231 163.324 74.5091 163.282C74.7951 163.239 75.0919 163.279 75.3994 163.401C75.7086 163.522 76.0027 163.721 76.2819 163.998C76.6837 164.397 76.9135 164.798 76.9712 165.202C77.0306 165.603 76.9532 165.986 76.7391 166.351Z" fill="white"/>
<path d="M85.6823 87.113L78.3012 94.5488L78.0689 94.3182L85.2048 87.1293L85.1613 87.086L82.5114 86.5604L82.7853 86.2845L85.3628 86.7959L85.6823 87.113ZM80.8092 97.0383L80.9966 96.8495L86.1751 96.3963C86.9851 96.3258 87.6408 96.2462 88.1421 96.1575C88.6458 96.0664 89.0541 95.9479 89.3671 95.8021C89.6825 95.6538 89.9627 95.4562 90.2078 95.2093C90.5298 94.885 90.7418 94.5213 90.844 94.1181C90.9487 93.7174 90.9436 93.3159 90.8287 92.9136C90.7163 92.5137 90.4955 92.1503 90.1663 91.8236C89.8226 91.4824 89.442 91.2607 89.0244 91.1585C88.6092 91.054 88.198 91.0591 87.7909 91.174C87.3838 91.2888 87.0228 91.5048 86.7081 91.8219L86.4757 91.5912C86.8337 91.2305 87.2428 90.9855 87.7029 90.8559C88.1679 90.7264 88.6357 90.7199 89.1064 90.8363C89.5795 90.9551 90.0097 91.2068 90.397 91.5912C90.7698 91.9612 91.0197 92.3751 91.1468 92.8328C91.2763 93.2881 91.2816 93.7451 91.1627 94.2038C91.0462 94.66 90.8054 95.0721 90.4402 95.44C90.1687 95.7135 89.8632 95.9293 89.5237 96.0873C89.1867 96.2477 88.7567 96.3735 88.2337 96.4646C87.7131 96.5582 87.037 96.6415 86.2052 96.7145L81.4317 97.1373L81.4029 97.1663L85.5275 101.261L85.2968 101.493L80.8092 97.0383ZM89.2805 105.649C88.8618 105.233 88.5695 104.775 88.4036 104.274C88.2402 103.775 88.2082 103.282 88.3077 102.795C88.4072 102.307 88.6444 101.875 89.0192 101.497L89.2515 101.728C88.92 102.062 88.7116 102.446 88.6264 102.881C88.5436 103.313 88.5765 103.751 88.7253 104.197C88.8789 104.643 89.1408 105.049 89.5112 105.417C89.9057 105.808 90.3311 106.07 90.7874 106.201C91.2437 106.332 91.6899 106.342 92.126 106.232C92.5645 106.124 92.9471 105.906 93.2739 105.576C93.6271 105.221 93.8426 104.815 93.9205 104.359C93.9984 103.903 93.9449 103.436 93.7598 102.959C93.5796 102.482 93.2777 102.034 92.8541 101.613L92.7379 101.498L92.9686 101.266L93.0848 101.381C93.4575 101.751 93.8612 102.015 94.2959 102.172C94.7306 102.33 95.16 102.369 95.5842 102.291C96.0083 102.212 96.391 102.001 96.7322 101.657C97.0493 101.337 97.2578 100.977 97.3576 100.577C97.4574 100.176 97.4463 99.7707 97.3242 99.3612C97.2045 98.9541 96.9692 98.5763 96.6182 98.2279C96.2721 97.8843 95.8914 97.653 95.4762 97.534C95.0633 97.4125 94.6497 97.4056 94.2353 97.5132C93.8257 97.6209 93.4527 97.8441 93.1164 98.183L92.884 97.9523C93.2636 97.5699 93.6871 97.3175 94.1545 97.1952C94.6219 97.0729 95.0898 97.0784 95.5582 97.2117C96.0289 97.3474 96.4592 97.6087 96.8489 97.9956C97.2386 98.3824 97.5006 98.8083 97.635 99.2732C97.7741 99.7382 97.7867 100.2 97.6726 100.659C97.561 101.115 97.3249 101.524 96.9645 101.888C96.5321 102.323 96.0362 102.573 95.4769 102.638C94.9177 102.703 94.3674 102.587 93.8261 102.29L93.7972 102.319C94.1612 102.925 94.3203 103.54 94.2743 104.162C94.2308 104.787 93.9748 105.335 93.5063 105.807C93.129 106.187 92.6935 106.437 92.1995 106.557C91.708 106.68 91.2063 106.667 90.6945 106.519C90.1851 106.369 89.7138 106.079 89.2805 105.649ZM94.9709 107.636L95.1438 107.461L104.035 105.331L104.18 105.475L103.704 105.954L103.53 105.781L95.5644 107.706L95.5355 107.735L99.7763 111.944L99.5456 112.177L94.9709 107.636ZM96.6538 112.766L98.4559 110.951L98.5279 110.878L104.035 105.331L104.267 105.561L96.8862 112.997L96.6538 112.766Z" fill="white"/>
<path d="M113.767 129.955C113.382 129.573 113.125 129.152 112.995 128.692C112.866 128.232 112.864 127.771 112.99 127.31C113.116 126.849 113.371 126.429 113.753 126.049L113.985 126.279C113.478 126.785 113.223 127.356 113.221 127.993C113.221 128.632 113.48 129.209 113.998 129.723C114.387 130.11 114.826 130.355 115.314 130.46C115.801 130.564 116.292 130.534 116.786 130.371C117.279 130.208 117.729 129.919 118.135 129.505C118.57 129.062 118.855 128.588 118.991 128.084C119.129 127.582 119.133 127.093 119.004 126.619C118.876 126.147 118.635 125.734 118.279 125.381C117.986 125.09 117.666 124.883 117.318 124.758C116.971 124.634 116.624 124.574 116.279 124.578L115.988 124.174L119.913 121.092L123.21 124.364L122.979 124.596L119.886 121.526L116.452 124.23L116.481 124.259C116.838 124.272 117.19 124.35 117.538 124.494C117.888 124.635 118.212 124.853 118.51 125.148C118.909 125.545 119.179 126.009 119.318 126.542C119.462 127.074 119.458 127.62 119.306 128.18C119.159 128.74 118.846 129.259 118.368 129.736C117.909 130.193 117.405 130.51 116.855 130.686C116.306 130.861 115.761 130.89 115.221 130.771C114.68 130.653 114.195 130.381 113.767 129.955ZM119.826 135.97C119.511 135.657 119.29 135.296 119.163 134.887C119.037 134.477 119.014 134.03 119.097 133.545C119.184 133.06 119.389 132.544 119.71 131.998C120.033 131.454 120.485 130.891 121.064 130.307C121.561 129.806 122.089 129.345 122.647 128.923C123.21 128.502 123.776 128.173 124.347 127.937C124.918 127.701 125.471 127.608 126.006 127.659C126.542 127.71 127.034 127.958 127.481 128.403C127.849 128.768 128.087 129.17 128.195 129.608C128.305 130.044 128.293 130.489 128.16 130.943C128.029 131.395 127.783 131.826 127.423 132.237L127.191 132.007C127.661 131.46 127.91 130.883 127.937 130.275C127.968 129.667 127.74 129.12 127.251 128.635C126.573 127.962 125.717 127.803 124.684 128.156C123.653 128.507 122.49 129.335 121.195 130.64L121.224 130.668C121.549 130.501 121.901 130.415 122.28 130.411C122.663 130.408 123.04 130.481 123.409 130.631C123.781 130.78 124.11 130.995 124.395 131.279C124.785 131.666 125.04 132.121 125.16 132.644C125.283 133.169 125.267 133.703 125.112 134.246C124.957 134.789 124.661 135.281 124.224 135.722C123.815 136.133 123.347 136.428 122.82 136.606C122.295 136.786 121.768 136.828 121.239 136.731C120.713 136.637 120.242 136.383 119.826 135.97ZM120.057 135.737C120.415 136.093 120.827 136.314 121.293 136.402C121.761 136.492 122.232 136.457 122.707 136.299C123.184 136.143 123.612 135.874 123.991 135.491C124.381 135.099 124.646 134.66 124.786 134.175C124.931 133.69 124.95 133.211 124.842 132.739C124.739 132.266 124.509 131.853 124.15 131.497C123.867 131.216 123.546 131.014 123.186 130.893C122.828 130.769 122.462 130.724 122.086 130.759C121.714 130.794 121.361 130.908 121.027 131.1C120.692 131.291 120.408 131.559 120.173 131.902C119.822 132.42 119.588 132.913 119.469 133.381C119.353 133.852 119.345 134.286 119.445 134.683C119.548 135.083 119.752 135.434 120.057 135.737ZM123.961 139.872L134.597 136.186L134.626 136.157L130.588 132.15L130.819 131.917L135.132 136.199L134.901 136.431L124.222 140.132L123.961 139.872ZM131.262 147.321C130.836 146.899 130.537 146.422 130.367 145.892C130.198 145.365 130.161 144.845 130.256 144.333C130.353 143.824 130.587 143.383 130.957 143.011C131.25 142.715 131.595 142.501 131.992 142.366C132.392 142.235 132.803 142.191 133.225 142.235C133.652 142.279 134.053 142.418 134.428 142.65L134.457 142.621C134.204 142.106 134.114 141.563 134.187 140.991C134.262 140.421 134.502 139.932 134.908 139.523C135.259 139.17 135.667 138.943 136.132 138.842C136.602 138.742 137.076 138.763 137.554 138.906C138.035 139.046 138.465 139.305 138.845 139.682C139.22 140.055 139.481 140.479 139.627 140.956C139.774 141.433 139.798 141.907 139.701 142.378C139.609 142.848 139.386 143.262 139.033 143.617C138.632 144.022 138.145 144.267 137.574 144.353C137.005 144.438 136.46 144.35 135.938 144.092L135.909 144.121C136.149 144.489 136.292 144.885 136.337 145.309C136.384 145.736 136.341 146.15 136.208 146.551C136.079 146.952 135.868 147.3 135.575 147.595C135.205 147.968 134.764 148.203 134.254 148.302C133.745 148.402 133.225 148.369 132.694 148.202C132.165 148.038 131.688 147.744 131.262 147.321ZM131.493 147.089C131.88 147.473 132.31 147.74 132.783 147.887C133.261 148.035 133.727 148.065 134.18 147.976C134.638 147.888 135.03 147.679 135.357 147.35C135.684 147.02 135.888 146.628 135.971 146.172C136.059 145.716 136.026 145.25 135.872 144.776C135.723 144.301 135.455 143.872 135.068 143.487C134.68 143.103 134.248 142.837 133.77 142.689C133.297 142.541 132.831 142.512 132.373 142.6C131.92 142.689 131.53 142.897 131.203 143.227C130.877 143.556 130.669 143.949 130.582 144.405C130.499 144.861 130.533 145.327 130.685 145.804C130.838 146.279 131.108 146.707 131.493 147.089ZM135.27 143.284C135.606 143.618 135.99 143.843 136.422 143.96C136.855 144.076 137.281 144.087 137.703 143.991C138.13 143.896 138.495 143.694 138.801 143.387C139.108 143.077 139.302 142.714 139.383 142.299C139.468 141.884 139.445 141.467 139.313 141.048C139.183 140.626 138.951 140.249 138.614 139.915C138.28 139.583 137.901 139.353 137.476 139.224C137.056 139.096 136.637 139.074 136.22 139.16C135.808 139.246 135.448 139.444 135.141 139.754C134.836 140.061 134.636 140.427 134.541 140.852C134.451 141.277 134.465 141.705 134.585 142.136C134.707 142.57 134.936 142.952 135.27 143.284Z" fill="white"/>
<path d="M156.8 157.506C157.117 157.821 157.338 158.181 157.463 158.589C157.592 158.996 157.614 159.44 157.529 159.923C157.449 160.406 157.248 160.918 156.927 161.459C156.608 162.003 156.158 162.568 155.577 163.153C155.079 163.655 154.551 164.117 153.99 164.541C153.43 164.965 152.863 165.297 152.29 165.535C151.717 165.774 151.161 165.868 150.624 165.82C150.088 165.769 149.595 165.52 149.145 165.073C148.777 164.708 148.539 164.306 148.431 163.867C148.326 163.426 148.34 162.979 148.473 162.525C148.609 162.069 148.857 161.635 149.217 161.224L149.45 161.454C148.982 161.999 148.73 162.578 148.697 163.193C148.663 163.808 148.889 164.357 149.375 164.84C150.051 165.511 150.906 165.668 151.942 165.312C152.98 164.959 154.148 164.128 155.445 162.821L155.416 162.792C155.094 162.962 154.741 163.049 154.357 163.053C153.976 163.054 153.6 162.981 153.228 162.833C152.858 162.682 152.531 162.465 152.245 162.182C151.853 161.793 151.596 161.335 151.473 160.81C151.353 160.287 151.37 159.754 151.525 159.211C151.682 158.67 151.98 158.18 152.417 157.739C152.825 157.328 153.291 157.033 153.814 156.855C154.339 156.679 154.863 156.64 155.387 156.737C155.913 156.836 156.384 157.092 156.8 157.506ZM156.57 157.738C156.211 157.383 155.799 157.159 155.334 157.066C154.87 156.976 154.401 157.008 153.927 157.162C153.455 157.318 153.029 157.587 152.649 157.97C152.26 158.362 151.993 158.8 151.847 159.286C151.707 159.771 151.688 160.25 151.791 160.722C151.899 161.194 152.132 161.608 152.49 161.964C152.774 162.245 153.094 162.448 153.451 162.572C153.811 162.693 154.178 162.735 154.551 162.698C154.927 162.663 155.282 162.55 155.614 162.361C155.951 162.172 156.235 161.904 156.468 161.559C156.818 161.041 157.05 160.548 157.164 160.08C157.281 159.614 157.286 159.182 157.181 158.785C157.079 158.39 156.875 158.041 156.57 157.738ZM162.331 163.197L154.95 170.633L154.717 170.402L161.853 163.214L161.81 163.17L159.16 162.645L159.434 162.369L162.011 162.88L162.331 163.197ZM159.434 175.286C158.962 174.817 158.707 174.26 158.671 173.614C158.638 172.97 158.812 172.271 159.195 171.517C159.578 170.763 160.162 169.992 160.945 169.203C161.728 168.414 162.495 167.825 163.246 167.436C163.997 167.048 164.695 166.868 165.339 166.897C165.985 166.928 166.544 167.178 167.016 167.647C167.488 168.115 167.741 168.671 167.775 169.315C167.811 169.961 167.638 170.661 167.255 171.415C166.872 172.169 166.288 172.94 165.505 173.73C164.722 174.519 163.955 175.107 163.204 175.496C162.453 175.885 161.754 176.063 161.108 176.032C160.464 176.003 159.906 175.754 159.434 175.286ZM159.664 175.053C160.298 175.683 161.114 175.861 162.112 175.587C163.109 175.313 164.163 174.617 165.273 173.499C166.013 172.753 166.565 172.03 166.929 171.329C167.298 170.629 167.471 169.984 167.45 169.396C167.431 168.805 167.209 168.299 166.786 167.879C166.152 167.249 165.336 167.072 164.338 167.345C163.341 167.619 162.287 168.315 161.177 169.433C160.437 170.179 159.883 170.902 159.514 171.603C159.15 172.304 158.978 172.949 158.997 173.54C159.02 174.131 159.243 174.635 159.664 175.053ZM172.535 173.326L165.154 180.762L164.922 180.532L172.058 173.343L172.014 173.299L169.364 172.774L169.638 172.498L172.216 173.009L172.535 173.326Z" fill="white"/>
<g clip-path="url(#clip2_577_155)">
<path d="M146.872 55.9568C146.635 55.4118 146.184 54.6224 145.414 53.8589C143.451 51.9099 141.028 51.5857 139.532 53.0758C138.418 54.1653 138.815 55.7782 139.201 56.8939C139.597 58.0342 139.614 58.5396 139.281 58.8754C138.761 59.3833 137.911 59.0118 137.339 58.4436C136.545 57.6556 136.241 57.1109 135.88 56.1824L135.74 55.7995L133.747 57.2513C134.002 57.9269 134.674 58.9685 135.557 59.8621C137.644 61.9329 140.026 62.2492 141.627 60.6682C142.505 59.7997 142.64 58.6009 142.039 56.9151C141.694 55.8726 141.504 55.2124 141.861 54.852C142.195 54.5325 142.88 54.5463 143.665 55.3255C144.327 55.9507 144.648 56.5777 144.853 57.0904L144.952 57.3507L146.872 55.9568Z" fill="white"/>
<path d="M132.21 56.3121L130.222 54.3386L139.107 47.8751L141.095 49.8485L132.21 56.3121Z" fill="white"/>
<path fill-rule="evenodd" clip-rule="evenodd" d="M150.618 59.3012L152.156 60.8278L146.119 70.1178L144.278 68.2904C144.278 68.2904 144.976 67.2271 145.187 66.9002L142.634 64.3663C142.357 64.4976 141.071 65.1068 141.071 65.1068L138.984 63.036L148.945 58.9084C149.645 58.6119 150.144 58.8304 150.618 59.3012ZM147.699 61.9966C147.699 61.9966 145.37 63.0827 144.767 63.3625L146.42 65.0029C146.72 64.5368 148.173 62.3205 148.173 62.3205L148.692 61.5193C148.464 61.632 148.147 61.7827 147.932 61.8845C147.787 61.9534 147.689 61.9999 147.699 61.9966Z" fill="white"/>
<path d="M136.203 44.9922L129.045 48.3087L129.889 47.0329L129.89 47.032L132.705 42.805C133.079 42.1997 132.865 41.7113 132.448 41.2647L129.249 38.0894L129.062 38.2124C129.644 39.1866 130.056 40.1671 130.312 41.1319L125.444 49.5797L127.547 51.6667L138.305 47.0791L136.203 44.9922Z" fill="white"/>
</g>
</g>
<g clip-path="url(#clip3_577_155)">
<rect x="321.054" y="125.927" width="280.119" height="176.075" rx="9.60408" transform="rotate(130.93 321.054 125.927)" fill="url(#paint1_linear_577_155)"/>
<path d="M197.115 45.9979L191.838 41.4219L192.472 40.6901L198.669 41.3638L198.711 41.3148L194.841 37.9588L195.531 37.1626L200.808 41.7386L200.169 42.4756L193.966 41.7999L193.923 41.8489L197.799 45.2094L197.115 45.9979ZM189.325 44.158C189.663 43.768 190.038 43.5044 190.449 43.3672C190.86 43.2332 191.284 43.2216 191.721 43.3323C192.157 43.4463 192.581 43.6813 192.992 44.0373C193.397 44.3889 193.689 44.7743 193.867 45.1936C194.044 45.6146 194.1 46.0369 194.037 46.4605C193.972 46.8858 193.78 47.2822 193.461 47.6498C193.268 47.8731 193.043 48.0576 192.788 48.2031C192.532 48.3486 192.253 48.4361 191.95 48.4657C191.648 48.4953 191.329 48.4487 190.993 48.3259C190.658 48.2047 190.312 47.9883 189.953 47.677L189.68 47.4402L192.408 44.294L192.985 44.7945L190.912 47.1857C191.114 47.3615 191.33 47.4759 191.557 47.529C191.787 47.5836 192.012 47.5757 192.233 47.5052C192.452 47.4364 192.648 47.3023 192.821 47.1031C193.008 46.8866 193.119 46.6515 193.152 46.3977C193.186 46.1471 193.156 45.9042 193.062 45.6691C192.968 45.4373 192.822 45.2357 192.625 45.0644L192.174 44.6734C191.909 44.444 191.644 44.2952 191.378 44.2271C191.111 44.1607 190.855 44.1692 190.611 44.2526C190.369 44.3376 190.15 44.4926 189.955 44.7176C189.828 44.8636 189.734 45.0146 189.671 45.1706C189.609 45.3281 189.583 45.4871 189.591 45.6477C189.599 45.8083 189.645 45.9654 189.728 46.1191L188.965 46.7343C188.801 46.4897 188.703 46.2218 188.673 45.9306C188.643 45.6426 188.681 45.3465 188.789 45.0423C188.896 44.7413 189.075 44.4465 189.325 44.158ZM186.454 47.631L191.421 49.8984L190.731 50.6946L187.152 48.9498L187.118 48.9884L189.35 52.287L188.66 53.0832L185.096 51.347L185.062 51.3856L187.288 54.6653L186.597 55.4614L183.647 50.8673L184.329 50.0815L187.883 51.7555L187.935 51.6962L185.774 48.4143L186.454 47.631ZM180.047 62.2135L180.744 61.4096C180.943 61.5277 181.144 61.6012 181.347 61.6302C181.551 61.6593 181.751 61.6523 181.948 61.6093C182.145 61.5662 182.332 61.4893 182.509 61.3783C182.685 61.2691 182.846 61.1303 182.992 60.962C183.256 60.6579 183.415 60.3194 183.471 59.9463C183.525 59.5749 183.465 59.1916 183.29 58.7962C183.114 58.4026 182.813 58.0211 182.387 57.6517C181.957 57.2793 181.535 57.0337 181.121 56.9149C180.704 56.7978 180.317 56.794 179.957 56.9034C179.597 57.0128 179.287 57.2178 179.026 57.5184C178.882 57.6851 178.767 57.8625 178.682 58.0506C178.597 58.242 178.547 58.4374 178.53 58.6368C178.514 58.8363 178.534 59.0339 178.59 59.2298C178.646 59.4289 178.744 59.6178 178.884 59.7964L178.184 60.5981C177.962 60.3302 177.795 60.0398 177.684 59.727C177.574 59.4173 177.523 59.0978 177.532 58.7683C177.541 58.4421 177.609 58.1189 177.736 57.7988C177.863 57.4787 178.052 57.1735 178.304 56.8832C178.7 56.4262 179.162 56.113 179.688 55.9434C180.216 55.7752 180.772 55.7639 181.356 55.9093C181.939 56.0564 182.511 56.3735 183.073 56.8606C183.636 57.3492 184.03 57.8716 184.255 58.4278C184.482 58.9855 184.548 59.5368 184.455 60.0818C184.363 60.6283 184.12 61.1291 183.725 61.5843C183.483 61.8643 183.216 62.0904 182.925 62.2626C182.635 62.438 182.328 62.5558 182.005 62.6158C181.684 62.6773 181.357 62.6756 181.025 62.6105C180.695 62.547 180.369 62.4147 180.047 62.2135ZM180.322 65.363L175.045 60.7869L175.713 60.0165L180.99 64.5925L180.322 65.363ZM172.621 63.4212C172.943 63.0502 173.309 62.8001 173.718 62.671C174.128 62.5419 174.552 62.5335 174.991 62.6458C175.429 62.7581 175.853 62.9915 176.262 63.346C176.672 63.702 176.965 64.0898 177.14 64.5093C177.315 64.9288 177.367 65.3506 177.297 65.7746C177.228 66.1986 177.032 66.5962 176.71 66.9672C176.388 67.3383 176.023 67.5883 175.613 67.7174C175.203 67.8465 174.778 67.8542 174.338 67.7404C173.898 67.6267 173.472 67.3918 173.062 67.0358C172.653 66.6813 172.362 66.295 172.189 65.877C172.016 65.4589 171.964 65.0379 172.034 64.6139C172.104 64.1898 172.299 63.7923 172.621 63.4212ZM173.266 63.9847C173.057 64.2251 172.948 64.4795 172.938 64.7478C172.928 65.0161 172.996 65.2796 173.142 65.5384C173.286 65.7989 173.485 66.0394 173.739 66.2599C173.992 66.4788 174.257 66.6413 174.536 66.7472C174.814 66.8563 175.086 66.8877 175.352 66.8414C175.618 66.7951 175.855 66.6517 176.064 66.4112C176.274 66.169 176.384 65.9122 176.393 65.6407C176.402 65.3709 176.333 65.105 176.187 64.843C176.041 64.5842 175.842 64.3453 175.589 64.1264C175.335 63.9059 175.07 63.7419 174.793 63.6342C174.514 63.5283 174.243 63.4993 173.979 63.5471C173.713 63.5966 173.476 63.7424 173.266 63.9847ZM172.711 71.4749L172.093 70.9386L173.967 68.7768L174.586 69.3131L172.711 71.4749ZM175.031 70.7151L174.363 71.4855L170.619 68.2389C170.47 68.1093 170.338 68.0341 170.224 68.0132C170.111 67.9938 170.01 68.0074 169.922 68.054C169.834 68.1038 169.753 68.1708 169.68 68.255C169.626 68.3168 169.584 68.3747 169.552 68.4285C169.52 68.4823 169.496 68.5243 169.479 68.5546L168.722 68.1418C168.743 68.0823 168.781 68.0038 168.835 67.9065C168.888 67.8076 168.967 67.6956 169.073 67.5705C169.245 67.3648 169.445 67.2071 169.672 67.0974C169.9 66.9878 170.14 66.9473 170.392 66.9761C170.643 67.005 170.889 67.1229 171.128 67.33L175.031 70.7151ZM169.622 71.7883L167.272 69.7506L167.941 68.9801L173.218 73.5562L172.558 74.3163L170.595 72.6137L170.553 72.6626C170.685 72.9401 170.731 73.2286 170.691 73.528C170.652 73.8274 170.498 74.1308 170.232 74.4383C169.996 74.7097 169.735 74.8984 169.447 75.0042C169.159 75.1118 168.855 75.1254 168.536 75.0449C168.218 74.9676 167.894 74.7859 167.564 74.4999L165.047 72.3169L165.715 71.5465L168.14 73.6491C168.43 73.9008 168.72 74.0212 169.009 74.0103C169.3 74.0009 169.561 73.863 169.792 73.5968C169.95 73.4147 170.053 73.218 170.101 73.0067C170.147 72.7971 170.131 72.5862 170.053 72.3742C169.976 72.1653 169.832 71.9701 169.622 71.7883ZM162.596 74.9815C162.935 74.5916 163.309 74.328 163.72 74.1908C164.131 74.0568 164.555 74.0452 164.992 74.1559C165.429 74.2699 165.852 74.5049 166.263 74.8609C166.668 75.2125 166.96 75.5979 167.138 76.0172C167.315 76.4382 167.371 76.8605 167.308 77.2841C167.243 77.7093 167.051 78.1058 166.733 78.4734C166.539 78.6967 166.314 78.8811 166.059 79.0267C165.803 79.1722 165.524 79.2597 165.222 79.2893C164.919 79.3189 164.6 79.2723 164.264 79.1495C163.93 79.0282 163.583 78.8119 163.224 78.5006L162.951 78.2638L165.679 75.1176L166.256 75.6181L164.183 78.0093C164.385 78.1851 164.601 78.2995 164.828 78.3526C165.058 78.4072 165.283 78.3992 165.504 78.3287C165.723 78.26 165.919 78.1259 166.092 77.9267C166.279 77.7102 166.39 77.4751 166.423 77.2213C166.457 76.9706 166.427 76.7278 166.333 76.4927C166.239 76.2608 166.093 76.0593 165.896 75.888L165.445 75.4969C165.18 75.2675 164.915 75.1188 164.649 75.0507C164.382 74.9843 164.126 74.9928 163.882 75.0762C163.64 75.1612 163.421 75.3161 163.226 75.5412C163.1 75.6872 163.005 75.8382 162.942 75.9942C162.88 76.1517 162.854 76.3107 162.862 76.4713C162.87 76.6319 162.916 76.789 162.999 76.9426L162.236 77.5579C162.072 77.3133 161.974 77.0454 161.944 76.7542C161.914 76.4662 161.952 76.1701 162.06 75.8659C162.167 75.5649 162.346 75.2701 162.596 74.9815ZM160.882 83.1635L161.364 82.358C161.479 82.4063 161.604 82.4336 161.74 82.4401C161.874 82.4482 162.013 82.4214 162.157 82.3596C162.301 82.2978 162.442 82.187 162.581 82.0273C162.77 81.8091 162.879 81.5846 162.908 81.3536C162.938 81.1242 162.877 80.9432 162.724 80.8106C162.592 80.6959 162.443 80.6525 162.277 80.6804C162.112 80.7083 161.908 80.809 161.668 80.9825L160.978 81.4861C160.578 81.7773 160.213 81.9362 159.883 81.9629C159.553 81.9896 159.248 81.8816 158.968 81.6388C158.731 81.4332 158.579 81.1813 158.513 80.883C158.447 80.5879 158.467 80.273 158.574 79.9382C158.679 79.6051 158.87 79.2788 159.147 78.9593C159.531 78.5161 159.939 78.2364 160.371 78.1203C160.805 78.0056 161.224 78.0685 161.63 78.3088L161.097 79.1518C160.863 79.0298 160.634 78.9978 160.409 79.0557C160.186 79.1151 159.974 79.2607 159.773 79.4926C159.554 79.7451 159.431 79.9924 159.405 80.2344C159.38 80.478 159.444 80.666 159.597 80.7986C159.721 80.9058 159.865 80.9496 160.03 80.9298C160.193 80.9118 160.378 80.8269 160.584 80.6752L161.312 80.1326C161.717 79.8362 162.087 79.6793 162.425 79.6618C162.76 79.6459 163.069 79.7602 163.351 80.0045C163.585 80.207 163.732 80.4496 163.794 80.7321C163.856 81.0146 163.837 81.3133 163.735 81.6284C163.635 81.945 163.456 82.2519 163.198 82.5491C162.827 82.9768 162.443 83.2331 162.044 83.3178C161.647 83.4041 161.26 83.3527 160.882 83.1635Z" fill="white"/>
<path d="M243.872 82.9145L235.957 76.0504L236.171 75.8031L243.824 82.4392L243.864 82.3928L244.21 79.7135L244.504 79.9683L244.167 82.5743L243.872 82.9145ZM233.642 78.7202L233.843 78.8945L234.643 84.0308C234.768 84.8342 234.892 85.4831 235.014 85.9772C235.139 86.4737 235.284 86.8731 235.451 87.1756C235.62 87.4802 235.836 87.7465 236.099 87.9744C236.444 88.2739 236.821 88.461 237.23 88.5358C237.637 88.6133 238.038 88.5812 238.431 88.4395C238.823 88.3005 239.17 88.0557 239.474 87.7053C239.791 87.3394 239.987 86.9447 240.061 86.5212C240.137 86.0999 240.104 85.69 239.962 85.2915C239.821 84.893 239.581 84.5474 239.243 84.2547L239.458 84.0074C239.842 84.3403 240.114 84.7319 240.274 85.1823C240.434 85.6375 240.472 86.1039 240.388 86.5813C240.301 87.0614 240.079 87.5075 239.722 87.9198C239.377 88.3166 238.981 88.5938 238.533 88.7514C238.088 88.9113 237.632 88.9473 237.166 88.8595C236.703 88.774 236.276 88.5614 235.884 88.2218C235.593 87.9693 235.357 87.679 235.177 87.351C234.994 87.0255 234.84 86.6049 234.714 86.0893C234.585 85.5762 234.457 84.9072 234.328 84.0822L233.585 79.348L233.554 79.3212L229.746 83.7119L229.499 83.4974L233.642 78.7202ZM225.62 87.7517C226.007 87.3059 226.445 86.9834 226.933 86.7843C227.42 86.5877 227.91 86.5226 228.403 86.589C228.896 86.6555 229.343 86.863 229.745 87.2116L229.531 87.4589C229.175 87.1506 228.778 86.9685 228.339 86.9127C227.902 86.8592 227.466 86.9216 227.032 87.1C226.598 87.2832 226.21 87.5719 225.868 87.9662C225.504 88.3862 225.271 88.8282 225.171 89.2923C225.072 89.7563 225.091 90.2022 225.23 90.6299C225.367 91.0602 225.611 91.4273 225.962 91.7311C226.34 92.0596 226.76 92.2473 227.22 92.2944C227.68 92.3414 228.142 92.2566 228.605 92.0399C229.069 91.828 229.496 91.4966 229.887 91.0456L229.995 90.922L230.242 91.1365L230.135 91.2601C229.791 91.6569 229.555 92.0775 229.427 92.5218C229.299 92.9661 229.288 93.3972 229.395 93.8151C229.503 94.233 229.739 94.6006 230.105 94.9178C230.445 95.2128 230.818 95.3966 231.225 95.4692C231.631 95.5418 232.035 95.5034 232.435 95.3541C232.833 95.2073 233.194 94.9471 233.518 94.5734C233.838 94.205 234.043 93.8096 234.134 93.3873C234.227 92.9672 234.206 92.5541 234.071 92.1478C233.936 91.7464 233.688 91.3893 233.328 91.0765L233.542 90.8291C233.949 91.1822 234.23 91.5877 234.383 92.0459C234.537 92.504 234.563 92.9712 234.461 93.4474C234.357 93.9263 234.126 94.3731 233.766 94.7879C233.406 95.2028 232.999 95.4929 232.544 95.6582C232.089 95.8284 231.629 95.872 231.164 95.789C230.702 95.7083 230.277 95.5004 229.89 95.1652C229.427 94.763 229.144 94.2851 229.041 93.7315C228.939 93.1778 229.018 92.621 229.278 92.0609L229.247 92.0341C228.666 92.4381 228.064 92.6381 227.44 92.6341C226.814 92.6327 226.249 92.4142 225.747 91.9785C225.342 91.6277 225.064 91.2099 224.911 90.7252C224.756 90.243 224.734 89.7416 224.847 89.221C224.963 88.7027 225.22 88.2129 225.62 87.7517ZM224.021 93.5628L224.207 93.7237L226.931 102.451L226.797 102.606L226.287 102.163L226.448 101.978L223.991 94.1597L223.96 94.1329L220.045 98.6472L219.798 98.4327L224.021 93.5628ZM219.015 95.5872L220.948 97.263L221.025 97.33L226.931 102.451L226.716 102.699L218.801 95.8345L219.015 95.5872Z" fill="white"/>
<path d="M203.017 113.818C203.372 113.408 203.775 113.123 204.225 112.963C204.676 112.803 205.135 112.77 205.604 112.865C206.072 112.96 206.509 113.185 206.914 113.541L206.699 113.788C206.16 113.316 205.573 113.101 204.938 113.141C204.3 113.184 203.742 113.481 203.264 114.033C202.904 114.447 202.689 114.902 202.618 115.395C202.546 115.888 202.609 116.376 202.805 116.858C203.001 117.339 203.32 117.769 203.76 118.146C204.231 118.55 204.723 118.803 205.235 118.904C205.746 119.008 206.233 118.98 206.698 118.818C207.161 118.66 207.556 118.391 207.885 118.012C208.155 117.7 208.34 117.367 208.441 117.012C208.541 116.656 208.578 116.307 208.551 115.963L208.935 115.645L212.274 119.354L209.231 122.863L208.983 122.649L211.839 119.356L208.91 116.111L208.883 116.142C208.894 116.499 208.84 116.856 208.72 117.213C208.603 117.572 208.407 117.91 208.132 118.227C207.763 118.652 207.318 118.952 206.796 119.127C206.275 119.307 205.729 119.339 205.16 119.225C204.592 119.116 204.053 118.838 203.545 118.393C203.058 117.966 202.708 117.485 202.496 116.949C202.284 116.412 202.219 115.871 202.301 115.323C202.383 114.776 202.621 114.274 203.017 113.818ZM197.424 120.268C197.714 119.933 198.059 119.688 198.46 119.534C198.86 119.38 199.304 119.328 199.794 119.378C200.284 119.432 200.812 119.601 201.379 119.885C201.943 120.171 202.536 120.584 203.156 121.122C203.69 121.585 204.186 122.08 204.644 122.608C205.103 123.141 205.469 123.685 205.743 124.238C206.017 124.792 206.146 125.337 206.131 125.875C206.116 126.413 205.902 126.92 205.489 127.397C205.149 127.789 204.764 128.053 204.334 128.19C203.906 128.329 203.461 128.347 203 128.245C202.54 128.145 202.093 127.929 201.659 127.597L201.873 127.349C202.451 127.782 203.043 127.992 203.651 127.977C204.26 127.968 204.79 127.703 205.241 127.182C205.867 126.461 205.969 125.597 205.546 124.589C205.127 123.584 204.223 122.48 202.834 121.276L202.807 121.306C202.996 121.619 203.105 121.965 203.135 122.342C203.164 122.724 203.116 123.105 202.991 123.484C202.868 123.865 202.675 124.207 202.411 124.511C202.051 124.926 201.615 125.211 201.101 125.366C200.585 125.524 200.051 125.544 199.499 125.426C198.946 125.308 198.436 125.046 197.967 124.639C197.529 124.259 197.203 123.812 196.99 123.298C196.775 122.786 196.698 122.263 196.759 121.729C196.818 121.198 197.039 120.711 197.424 120.268ZM197.671 120.482C197.34 120.864 197.147 121.29 197.091 121.76C197.033 122.233 197.099 122.701 197.289 123.164C197.477 123.63 197.774 124.039 198.181 124.392C198.599 124.754 199.054 124.988 199.548 125.096C200.042 125.208 200.521 125.195 200.985 125.055C201.449 124.921 201.847 124.663 202.177 124.282C202.439 123.98 202.618 123.646 202.715 123.279C202.815 122.914 202.835 122.545 202.774 122.172C202.714 121.804 202.577 121.459 202.363 121.139C202.15 120.818 201.864 120.552 201.505 120.34C200.965 120.026 200.458 119.825 199.983 119.738C199.505 119.653 199.072 119.674 198.682 119.801C198.289 119.931 197.953 120.158 197.671 120.482ZM193.808 124.656L198.201 135.02L198.232 135.047L201.959 130.749L202.207 130.963L198.225 135.555L197.978 135.34L193.567 124.934L193.808 124.656ZM186.867 132.442C187.26 131.988 187.716 131.658 188.233 131.452C188.748 131.249 189.264 131.177 189.781 131.237C190.295 131.3 190.751 131.503 191.148 131.847C191.462 132.12 191.699 132.45 191.86 132.837C192.018 133.227 192.09 133.634 192.074 134.059C192.058 134.488 191.947 134.897 191.741 135.286L191.771 135.313C192.268 135.026 192.805 134.9 193.38 134.934C193.953 134.971 194.458 135.178 194.893 135.555C195.269 135.881 195.523 136.273 195.655 136.73C195.787 137.193 195.798 137.667 195.687 138.153C195.579 138.642 195.35 139.089 194.999 139.493C194.653 139.893 194.247 140.182 193.781 140.36C193.315 140.538 192.844 140.595 192.367 140.529C191.892 140.469 191.464 140.274 191.086 139.946C190.655 139.573 190.378 139.104 190.253 138.54C190.131 137.978 190.181 137.428 190.404 136.89L190.373 136.863C190.022 137.128 189.636 137.296 189.216 137.37C188.793 137.446 188.378 137.431 187.969 137.324C187.56 137.223 187.199 137.036 186.884 136.763C186.488 136.419 186.223 135.996 186.09 135.492C185.956 134.992 185.954 134.471 186.084 133.93C186.213 133.391 186.474 132.895 186.867 132.442ZM187.114 132.656C186.757 133.068 186.52 133.516 186.405 133.998C186.29 134.485 186.291 134.951 186.41 135.397C186.529 135.848 186.764 136.226 187.114 136.529C187.465 136.833 187.87 137.011 188.331 137.063C188.792 137.12 189.254 137.055 189.717 136.87C190.181 136.69 190.591 136.393 190.949 135.981C191.306 135.569 191.542 135.119 191.658 134.632C191.773 134.15 191.772 133.684 191.652 133.233C191.534 132.787 191.299 132.412 190.949 132.108C190.598 131.804 190.193 131.624 189.732 131.567C189.271 131.515 188.808 131.581 188.342 131.764C187.879 131.949 187.47 132.247 187.114 132.656ZM191.165 136.169C190.854 136.527 190.656 136.925 190.568 137.364C190.481 137.803 190.499 138.23 190.623 138.644C190.747 139.063 190.973 139.415 191.3 139.699C191.63 139.985 192.005 140.154 192.424 140.206C192.844 140.263 193.259 140.212 193.668 140.052C194.08 139.895 194.441 139.637 194.752 139.279C195.06 138.923 195.264 138.529 195.364 138.097C195.464 137.669 195.457 137.25 195.343 136.84C195.23 136.434 195.008 136.089 194.679 135.803C194.351 135.519 193.973 135.344 193.542 135.278C193.112 135.217 192.686 135.26 192.264 135.409C191.84 135.56 191.473 135.813 191.165 136.169Z" fill="white"/>
<path d="M178.424 158.608C178.131 158.945 177.786 159.19 177.388 159.341C176.991 159.498 176.549 159.55 176.061 159.497C175.574 159.45 175.05 159.284 174.488 159C173.924 158.719 173.33 158.308 172.707 157.767C172.174 157.304 171.676 156.808 171.216 156.277C170.755 155.747 170.386 155.204 170.11 154.648C169.833 154.092 169.701 153.544 169.713 153.004C169.728 152.466 169.944 151.958 170.359 151.479C170.699 151.087 171.084 150.823 171.514 150.686C171.947 150.551 172.394 150.535 172.856 150.637C173.32 150.742 173.77 150.96 174.205 151.292L173.99 151.539C173.415 151.109 172.82 150.897 172.204 150.905C171.588 150.912 171.056 151.175 170.607 151.693C169.983 152.412 169.884 153.276 170.309 154.286C170.731 155.297 171.638 156.407 173.03 157.613L173.056 157.582C172.865 157.272 172.755 156.926 172.725 156.543C172.698 156.163 172.746 155.783 172.869 155.402C172.994 155.023 173.189 154.681 173.452 154.377C173.814 153.96 174.253 153.672 174.769 153.515C175.283 153.36 175.816 153.341 176.368 153.459C176.918 153.58 177.428 153.843 177.897 154.25C178.335 154.63 178.66 155.074 178.873 155.584C179.083 156.096 179.158 156.616 179.096 157.145C179.032 157.677 178.808 158.164 178.424 158.608ZM178.177 158.393C178.507 158.012 178.703 157.586 178.764 157.115C178.823 156.646 178.759 156.181 178.574 155.717C178.386 155.257 178.089 154.85 177.682 154.497C177.265 154.135 176.809 153.898 176.315 153.786C175.821 153.678 175.342 153.692 174.878 153.826C174.414 153.966 174.017 154.226 173.686 154.607C173.425 154.909 173.244 155.242 173.144 155.607C173.047 155.974 173.03 156.343 173.092 156.713C173.153 157.086 173.289 157.432 173.5 157.75C173.712 158.074 173.998 158.34 174.358 158.549C174.898 158.863 175.405 159.062 175.88 159.144C176.353 159.229 176.784 159.205 177.174 159.074C177.561 158.945 177.895 158.718 178.177 158.393ZM173.118 164.508L165.202 157.644L165.417 157.397L173.069 164.033L173.11 163.987L173.456 161.307L173.749 161.562L173.413 164.168L173.118 164.508ZM160.862 162.431C161.297 161.929 161.836 161.638 162.479 161.558C163.119 161.481 163.828 161.608 164.606 161.94C165.383 162.271 166.192 162.801 167.032 163.53C167.872 164.258 168.512 164.984 168.95 165.707C169.388 166.43 169.614 167.114 169.629 167.759C169.641 168.406 169.429 168.98 168.994 169.483C168.558 169.985 168.02 170.275 167.38 170.352C166.738 170.432 166.028 170.306 165.25 169.974C164.472 169.643 163.663 169.113 162.823 168.384C161.983 167.656 161.344 166.93 160.905 166.207C160.467 165.484 160.242 164.799 160.23 164.152C160.215 163.507 160.426 162.934 160.862 162.431ZM161.109 162.646C160.524 163.321 160.401 164.147 160.741 165.123C161.082 166.1 161.847 167.105 163.037 168.137C163.831 168.825 164.59 169.327 165.313 169.643C166.037 169.964 166.692 170.094 167.278 170.033C167.866 169.974 168.355 169.719 168.746 169.268C169.332 168.593 169.454 167.767 169.114 166.791C168.774 165.814 168.008 164.809 166.818 163.777C166.024 163.089 165.266 162.584 164.542 162.264C163.818 161.948 163.162 161.819 162.574 161.878C161.986 161.941 161.498 162.197 161.109 162.646ZM163.698 175.371L155.782 168.507L155.997 168.26L163.65 174.896L163.69 174.849L164.036 172.17L164.33 172.425L163.993 175.031L163.698 175.371Z" fill="white"/>
<g clip-path="url(#clip4_577_155)">
<path d="M279.075 141.87C279.603 141.596 280.36 141.093 281.07 140.274C282.882 138.184 283.043 135.744 281.456 134.352C280.294 133.314 278.711 133.818 277.624 134.279C276.513 134.75 276.01 134.802 275.652 134.492C275.11 134.007 275.424 133.134 275.952 132.525C276.685 131.68 277.208 131.34 278.11 130.917L278.483 130.752L276.9 128.861C276.243 129.161 275.249 129.901 274.417 130.843C272.491 133.064 272.336 135.462 274.021 136.954C274.947 137.771 276.152 137.825 277.794 137.112C278.811 136.697 279.456 136.463 279.84 136.796C280.181 137.107 280.214 137.791 279.489 138.627C278.91 139.33 278.306 139.692 277.808 139.931L277.555 140.047L279.075 141.87Z" fill="white"/>
<path d="M277.734 127.265L279.569 125.148L286.616 133.578L284.781 135.695L277.734 127.265Z" fill="white"/>
<path fill-rule="evenodd" clip-rule="evenodd" d="M275.99 145.832L274.571 147.469L264.895 142.07L266.595 140.111C266.595 140.111 267.703 140.736 268.043 140.924L270.399 138.207C270.25 137.939 269.555 136.697 269.555 136.697L271.481 134.476L276.27 144.136C276.612 144.815 276.428 145.327 275.99 145.832ZM273.104 143.101C273.104 143.101 271.864 140.85 271.544 140.268L270.019 142.027C270.504 142.295 272.813 143.595 272.813 143.595L273.648 144.06C273.52 143.84 273.348 143.533 273.232 143.326C273.153 143.186 273.101 143.091 273.104 143.101Z" fill="white"/>
<path d="M289.297 130.487L285.506 123.568L286.836 124.325L286.837 124.325L291.244 126.85C291.873 127.182 292.346 126.936 292.763 126.489L295.716 123.084L295.581 122.905C294.648 123.552 293.697 124.029 292.752 124.349L283.996 120.061L282.055 122.299L287.356 132.725L289.297 130.487Z" fill="white"/>
</g>
</g>
<g clip-path="url(#clip5_577_155)">
<rect x="240.96" y="56.9001" width="251.431" height="158.043" rx="8.6205" transform="rotate(90.2582 240.96 56.9001)" fill="url(#paint2_linear_577_155)"/>
<path d="M109.902 70.4772L104.788 72.1991L104.788 72.2695L109.886 74.0374L109.882 75.0598L103.622 72.7754L103.627 71.6826L109.907 69.4547L109.902 70.4772ZM103.5 76.7683C103.502 76.4704 103.558 76.2012 103.669 75.9609C103.783 75.7206 103.946 75.5305 104.159 75.3907C104.372 75.2529 104.632 75.1846 104.94 75.186C105.205 75.1872 105.424 75.2392 105.595 75.342C105.766 75.4449 105.901 75.5832 106 75.7571C106.099 75.9311 106.174 76.1253 106.224 76.3398C106.274 76.5543 106.312 76.7729 106.337 76.9954C106.369 77.2772 106.394 77.5059 106.414 77.6815C106.435 77.8571 106.47 77.9848 106.519 78.0646C106.568 78.1444 106.647 78.1846 106.757 78.1851L106.779 78.1852C107.046 78.1864 107.254 78.1118 107.401 77.9615C107.549 77.8131 107.623 77.591 107.625 77.2951C107.626 76.9869 107.559 76.7438 107.423 76.5656C107.289 76.3895 107.139 76.2674 106.974 76.1993L107.174 75.34C107.459 75.4433 107.689 75.5933 107.864 75.79C108.041 75.9888 108.168 76.2169 108.247 76.4744C108.327 76.7319 108.367 77.0025 108.365 77.2862C108.365 77.474 108.341 77.6728 108.295 77.8828C108.252 78.0949 108.171 78.2925 108.054 78.4756C107.937 78.6608 107.77 78.8121 107.553 78.9295C107.338 79.0469 107.059 79.1048 106.716 79.1033L103.594 79.0892L103.598 78.1953L104.241 78.1982L104.241 78.1615C104.123 78.1018 104.007 78.0125 103.893 77.8936C103.78 77.7747 103.685 77.6223 103.611 77.4362C103.536 77.2502 103.499 77.0275 103.5 76.7683ZM104.234 76.9706C104.233 77.2237 104.282 77.4403 104.381 77.6203C104.48 77.8024 104.61 77.9407 104.771 78.0353C104.934 78.132 105.108 78.1807 105.294 78.1816L105.9 78.1843C105.868 78.1515 105.837 78.0881 105.809 77.9941C105.783 77.9021 105.76 77.7969 105.74 77.6785C105.722 77.56 105.706 77.4446 105.69 77.3323C105.676 77.22 105.664 77.1261 105.654 77.0505C105.633 76.8729 105.596 76.7104 105.543 76.5633C105.491 76.4181 105.415 76.3015 105.315 76.2132C105.218 76.1271 105.087 76.0836 104.924 76.0829C104.697 76.0819 104.526 76.1648 104.408 76.3316C104.293 76.4984 104.235 76.7115 104.234 76.9706ZM103.485 82.2885C103.487 81.8334 103.592 81.4421 103.799 81.1144C104.009 80.7888 104.297 80.5391 104.663 80.3652C105.029 80.1914 105.448 80.1055 105.919 80.1076C106.397 80.1098 106.818 80.2015 107.182 80.3827C107.549 80.564 107.834 80.8183 108.039 81.1458C108.244 81.4732 108.345 81.8584 108.343 82.3013C108.341 82.6584 108.274 82.9765 108.14 83.2555C108.008 83.5345 107.823 83.7592 107.586 83.9295C107.348 84.1019 107.071 84.2037 106.755 84.235L106.759 83.3441C106.979 83.2962 107.169 83.1848 107.329 83.01C107.489 82.8372 107.57 82.6049 107.571 82.3131C107.573 82.058 107.506 81.8342 107.372 81.6418C107.241 81.4514 107.051 81.3026 106.805 81.1953C106.561 81.0881 106.271 81.0337 105.936 81.0322C105.593 81.0307 105.297 81.0814 105.048 81.1843C104.798 81.2873 104.605 81.4334 104.467 81.6226C104.33 81.8138 104.26 82.039 104.259 82.2982C104.258 82.4716 104.289 82.6289 104.352 82.77C104.417 82.9132 104.509 83.033 104.629 83.1294C104.749 83.2279 104.893 83.297 105.063 83.3365L105.059 84.2273C104.755 84.1933 104.484 84.0931 104.246 83.9267C104.008 83.7603 103.821 83.538 103.685 83.2599C103.55 82.9838 103.483 82.66 103.485 82.2885ZM103.456 86.5673C103.458 86.2694 103.514 86.0002 103.625 85.7599C103.738 85.5196 103.902 85.3295 104.114 85.1897C104.327 85.0518 104.588 84.9836 104.896 84.985C105.161 84.9862 105.379 85.0382 105.55 85.141C105.721 85.2438 105.857 85.3822 105.956 85.5561C106.055 85.7301 106.13 85.9243 106.18 86.1388C106.23 86.3533 106.267 86.5718 106.293 86.7944C106.324 87.0762 106.35 87.3049 106.37 87.4805C106.391 87.6561 106.426 87.7838 106.475 87.8636C106.524 87.9434 106.603 87.9836 106.713 87.9841L106.735 87.9842C107.002 87.9854 107.209 87.9108 107.357 87.7605C107.505 87.6121 107.579 87.39 107.58 87.0941C107.582 86.7859 107.515 86.5428 107.379 86.3646C107.245 86.1885 107.095 86.0664 106.93 85.9983L107.13 85.139C107.415 85.2423 107.645 85.3923 107.82 85.589C107.997 85.7878 108.124 86.0159 108.203 86.2734C108.283 86.5309 108.323 86.8015 108.321 87.0852C108.32 87.2729 108.297 87.4718 108.251 87.6818C108.207 87.8939 108.127 88.0915 108.01 88.2746C107.893 88.4598 107.726 88.6111 107.509 88.7285C107.294 88.8459 107.015 88.9038 106.672 88.9023L103.55 88.8882L103.554 87.9943L104.197 87.9972L104.197 87.9605C104.079 87.9008 103.963 87.8115 103.849 87.6926C103.735 87.5737 103.641 87.4212 103.566 87.2352C103.492 87.0491 103.455 86.8265 103.456 86.5673ZM104.19 86.7696C104.189 87.0227 104.238 87.2392 104.337 87.4193C104.436 87.6014 104.566 87.7397 104.727 87.8343C104.89 87.931 105.064 87.9797 105.25 87.9806L105.856 87.9833C105.823 87.9505 105.793 87.8871 105.765 87.7931C105.739 87.7011 105.716 87.5959 105.696 87.4774C105.678 87.359 105.661 87.2436 105.646 87.1313C105.632 87.019 105.62 86.9251 105.61 86.8495C105.588 86.6718 105.551 86.5094 105.499 86.3623C105.447 86.2171 105.371 86.1004 105.271 86.0122C105.173 85.9261 105.043 85.8826 104.88 85.8819C104.653 85.8809 104.481 85.9638 104.364 86.1306C104.249 86.2974 104.191 86.5104 104.19 86.7696ZM108.236 92.3234L107.502 92.3201L107.513 89.7518L108.248 89.7551L108.236 92.3234ZM109.371 90.4489L109.367 91.3642L104.919 91.3442C104.742 91.3434 104.608 91.3693 104.518 91.422C104.43 91.4746 104.37 91.5427 104.336 91.6263C104.305 91.7118 104.29 91.8046 104.289 91.9046C104.289 91.9781 104.294 92.0424 104.304 92.0975C104.314 92.1527 104.322 92.1956 104.328 92.2262L103.571 92.3881C103.551 92.335 103.531 92.2594 103.511 92.1613C103.489 92.0633 103.477 91.9408 103.476 91.7938C103.473 91.553 103.516 91.3287 103.607 91.1209C103.698 90.9132 103.837 90.7454 104.026 90.6177C104.214 90.49 104.45 90.4267 104.734 90.428L109.371 90.4489ZM103.53 93.3148L108.232 93.3359L108.228 94.2512L103.526 94.2301L103.53 93.3148ZM108.955 93.8015C108.956 93.6423 109.01 93.5058 109.116 93.392C109.225 93.2802 109.354 93.2247 109.503 93.2253C109.654 93.226 109.782 93.2827 109.888 93.3954C109.995 93.5102 110.049 93.6472 110.048 93.8064C110.048 93.9656 109.993 94.101 109.884 94.2128C109.778 94.3266 109.649 94.3832 109.498 94.3825C109.349 94.3818 109.22 94.3241 109.113 94.2093C109.007 94.0966 108.955 93.9606 108.955 93.8015ZM103.416 97.4416C103.418 97.0008 103.521 96.6166 103.725 96.2889C103.928 95.9612 104.212 95.7074 104.576 95.5274C104.94 95.3474 105.365 95.2585 105.851 95.2607C106.339 95.2629 106.765 95.3556 107.129 95.5389C107.494 95.7222 107.776 95.9786 107.977 96.3081C108.177 96.6376 108.277 97.0227 108.275 97.4635C108.273 97.9043 108.17 98.2886 107.966 98.6162C107.763 98.9439 107.478 99.1977 107.112 99.3777C106.746 99.5577 106.319 99.6466 105.831 99.6444C105.345 99.6422 104.921 99.5495 104.559 99.3662C104.196 99.1829 103.915 98.9266 103.714 98.5971C103.514 98.2676 103.414 97.8824 103.416 97.4416ZM104.185 97.4481C104.183 97.7339 104.258 97.9709 104.408 98.1594C104.558 98.3478 104.759 98.4875 105.009 98.5784C105.26 98.6714 105.536 98.7186 105.838 98.7199C106.138 98.7213 106.414 98.6766 106.665 98.5859C106.919 98.4972 107.123 98.3594 107.276 98.1723C107.43 97.9852 107.508 97.7488 107.509 97.4631C107.511 97.1754 107.435 96.9363 107.283 96.7458C107.131 96.5573 106.928 96.4166 106.676 96.3236C106.425 96.2327 106.15 96.1866 105.85 96.1852C105.548 96.1839 105.271 96.2275 105.019 96.3162C104.768 96.4069 104.566 96.5458 104.415 96.7328C104.263 96.922 104.186 97.1604 104.185 97.4481ZM106.285 101.583L103.493 101.571L103.497 100.656L108.199 100.677L108.195 101.555L107.43 101.552L107.429 101.61C107.678 101.719 107.877 101.89 108.027 102.121C108.177 102.354 108.251 102.647 108.25 103.001C108.248 103.321 108.18 103.601 108.044 103.841C107.91 104.082 107.711 104.267 107.447 104.399C107.184 104.53 106.858 104.595 106.47 104.594L103.479 104.58L103.483 103.665L106.364 103.678C106.705 103.679 106.971 103.592 107.164 103.415C107.359 103.238 107.457 102.995 107.458 102.685C107.459 102.472 107.414 102.283 107.323 102.118C107.232 101.954 107.098 101.824 106.921 101.727C106.746 101.632 106.534 101.585 106.285 101.583Z" fill="white"/>
<path d="M163.538 72.7699L154.134 72.7276L154.135 72.4337L163.227 72.4747L163.227 72.4195L161.895 70.3931L162.244 70.3947L163.54 72.3659L163.538 72.7699ZM154.119 75.8994L154.358 75.9004L157.908 78.9288C158.463 79.4027 158.927 79.7721 159.299 80.0371C159.674 80.302 160.007 80.4888 160.297 80.5972C160.591 80.7057 160.894 80.7606 161.206 80.762C161.616 80.7639 161.982 80.6706 162.305 80.4823C162.627 80.297 162.881 80.041 163.066 79.7143C163.251 79.3906 163.344 79.0206 163.346 78.6043C163.348 78.1696 163.25 77.7865 163.053 77.455C162.859 77.1235 162.596 76.8636 162.267 76.6754C161.937 76.4872 161.571 76.3921 161.17 76.3903L161.172 76.0965C161.628 76.0985 162.042 76.206 162.415 76.4189C162.79 76.6349 163.089 76.9301 163.311 77.3046C163.533 77.6821 163.642 78.1158 163.64 78.6056C163.638 79.077 163.53 79.4975 163.318 79.8669C163.108 80.2364 162.819 80.5274 162.45 80.7401C162.085 80.9527 161.67 81.058 161.205 81.0559C160.859 81.0543 160.528 80.9947 160.213 80.8769C159.899 80.7623 159.548 80.5663 159.16 80.289C158.772 80.0148 158.294 79.6346 157.723 79.1483L154.448 76.36L154.411 76.3599L154.388 81.5762L154.094 81.5749L154.119 75.8994ZM153.942 86.7401C153.944 86.2105 154.054 85.735 154.27 85.3135C154.486 84.8951 154.781 84.5643 155.156 84.3211C155.531 84.0778 155.957 83.9573 156.434 83.9595L156.433 84.2533C156.01 84.2514 155.633 84.3599 155.302 84.5789C154.973 84.7978 154.713 85.0951 154.522 85.4708C154.333 85.8495 154.238 86.2731 154.236 86.7414C154.234 87.2404 154.334 87.6771 154.538 88.0515C154.741 88.4259 155.015 88.718 155.36 88.9277C155.705 89.1405 156.086 89.2478 156.502 89.2497C156.952 89.2517 157.348 89.1341 157.689 88.8969C158.029 88.6596 158.294 88.3317 158.483 87.9132C158.674 87.4977 158.771 87.0221 158.774 86.4864L158.775 86.3394L159.068 86.3408L159.068 86.4877C159.066 86.9591 159.151 87.3835 159.324 87.7608C159.497 88.1381 159.742 88.4377 160.059 88.6596C160.376 88.8814 160.752 88.9933 161.187 88.9953C161.591 88.9971 161.953 88.9038 162.272 88.7155C162.591 88.5271 162.844 88.265 163.029 87.9291C163.214 87.5962 163.307 87.2079 163.309 86.764C163.311 86.3262 163.22 85.937 163.035 85.5964C162.852 85.2558 162.597 84.9867 162.267 84.7893C161.94 84.595 161.563 84.4969 161.134 84.4949L161.135 84.2011C161.619 84.2032 162.047 84.3154 162.419 84.5375C162.792 84.7596 163.083 85.0624 163.292 85.446C163.502 85.8327 163.606 86.2724 163.603 86.7653C163.601 87.2582 163.494 87.6939 163.281 88.0725C163.071 88.4543 162.783 88.753 162.418 88.9687C162.056 89.1844 161.645 89.2912 161.186 89.2892C160.635 89.2867 160.163 89.1269 159.769 88.8098C159.376 88.4927 159.104 88.0675 158.953 87.5342L158.916 87.534C158.757 88.1486 158.464 88.6371 158.037 88.9994C157.61 89.3649 157.098 89.5462 156.501 89.5436C156.02 89.5414 155.586 89.42 155.198 89.1795C154.811 88.942 154.503 88.6131 154.275 88.1927C154.051 87.7723 153.94 87.2881 153.942 86.7401ZM156.253 91.6318L156.473 91.6328L163.433 95.9805L163.432 96.1642L162.826 96.1615L162.827 95.9411L156.581 92.0557L156.545 92.0555L156.52 97.4188L156.227 97.4175L156.253 91.6318ZM154.029 95.9382L156.325 95.9485L156.417 95.9489L163.433 95.9805L163.432 96.2744L154.028 96.232L154.029 95.9382Z" fill="white"/>
<path d="M153.805 117.088C153.807 116.601 153.915 116.172 154.128 115.799C154.341 115.427 154.634 115.135 155.009 114.926C155.383 114.716 155.812 114.614 156.296 114.62L156.295 114.913C155.652 114.907 155.126 115.104 154.717 115.503C154.308 115.905 154.102 116.434 154.099 117.089C154.097 117.582 154.216 118.017 154.456 118.395C154.696 118.773 155.024 119.068 155.439 119.281C155.855 119.494 156.323 119.6 156.843 119.6C157.4 119.599 157.883 119.483 158.291 119.253C158.699 119.025 159.014 118.72 159.236 118.338C159.459 117.96 159.571 117.546 159.573 117.096C159.574 116.725 159.505 116.39 159.366 116.089C159.226 115.788 159.047 115.529 158.828 115.311L158.903 114.87L163.345 115.441L163.327 119.61L163.033 119.609L163.05 115.697L159.159 115.202L159.159 115.239C159.375 115.475 159.547 115.75 159.674 116.063C159.804 116.376 159.868 116.72 159.867 117.097C159.864 117.602 159.737 118.067 159.484 118.491C159.234 118.919 158.882 119.26 158.428 119.515C157.976 119.773 157.448 119.899 156.842 119.894C156.26 119.888 155.74 119.765 155.282 119.524C154.824 119.283 154.463 118.952 154.198 118.532C153.934 118.111 153.803 117.63 153.805 117.088ZM153.771 124.751C153.772 124.353 153.864 123.984 154.047 123.645C154.229 123.306 154.501 123.01 154.863 122.758C155.229 122.509 155.687 122.315 156.239 122.176C156.791 122.041 157.435 121.975 158.173 121.978C158.807 121.981 159.434 122.029 160.055 122.12C160.679 122.215 161.246 122.37 161.757 122.587C162.267 122.804 162.674 123.099 162.979 123.474C163.283 123.849 163.434 124.32 163.431 124.886C163.429 125.351 163.322 125.756 163.109 126.101C162.899 126.446 162.607 126.719 162.233 126.919C161.862 127.12 161.431 127.234 160.941 127.263L160.942 126.969C161.589 126.926 162.115 126.721 162.52 126.356C162.929 125.993 163.135 125.503 163.138 124.885C163.141 124.027 162.705 123.38 161.828 122.941C160.955 122.502 159.693 122.279 158.043 122.272L158.043 122.309C158.355 122.411 158.631 122.582 158.872 122.822C159.116 123.065 159.306 123.352 159.442 123.683C159.581 124.014 159.65 124.361 159.648 124.722C159.646 125.215 159.516 125.664 159.257 126.07C158.998 126.479 158.646 126.805 158.201 127.048C157.756 127.291 157.255 127.411 156.698 127.409C156.177 127.406 155.694 127.292 155.248 127.067C154.802 126.845 154.444 126.534 154.173 126.135C153.902 125.738 153.768 125.277 153.771 124.751ZM154.065 124.752C154.063 125.205 154.18 125.608 154.417 125.961C154.654 126.317 154.973 126.597 155.373 126.801C155.773 127.008 156.215 127.113 156.699 127.115C157.195 127.117 157.642 127.01 158.041 126.795C158.443 126.582 158.761 126.293 158.996 125.927C159.233 125.563 159.353 125.155 159.355 124.702C159.356 124.344 159.283 124.012 159.134 123.705C158.989 123.398 158.786 123.135 158.527 122.917C158.271 122.701 157.976 122.547 157.643 122.454C157.31 122.36 156.959 122.347 156.591 122.412C156.04 122.514 155.577 122.674 155.203 122.893C154.828 123.114 154.545 123.383 154.354 123.697C154.163 124.015 154.066 124.366 154.065 124.752ZM153.876 129.853L162.93 134.338L162.966 134.339L162.989 129.233L163.283 129.234L163.259 134.689L162.965 134.688L153.875 130.183L153.876 129.853ZM153.705 139.214C153.708 138.675 153.825 138.184 154.057 137.741C154.288 137.301 154.597 136.951 154.984 136.689C155.371 136.431 155.8 136.303 156.272 136.305C156.645 136.306 157 136.392 157.336 136.562C157.672 136.735 157.959 136.971 158.196 137.269C158.436 137.57 158.6 137.913 158.687 138.299L158.724 138.3C158.895 137.814 159.186 137.414 159.597 137.1C160.009 136.79 160.473 136.636 160.991 136.638C161.438 136.64 161.84 136.758 162.197 136.993C162.557 137.23 162.842 137.547 163.051 137.943C163.264 138.338 163.369 138.777 163.367 139.257C163.365 139.732 163.257 140.166 163.044 140.56C162.831 140.954 162.543 141.268 162.181 141.502C161.822 141.739 161.417 141.857 160.967 141.855C160.456 141.852 159.993 141.696 159.578 141.385C159.166 141.074 158.879 140.67 158.716 140.173L158.679 140.173C158.594 140.558 158.431 140.899 158.187 141.195C157.944 141.494 157.652 141.726 157.312 141.893C156.974 142.063 156.619 142.147 156.245 142.146C155.774 142.143 155.346 142.01 154.961 141.745C154.577 141.483 154.271 141.13 154.043 140.685C153.816 140.243 153.703 139.752 153.705 139.214ZM153.999 139.215C153.997 139.705 154.098 140.148 154.301 140.543C154.507 140.942 154.782 141.259 155.123 141.493C155.468 141.73 155.849 141.85 156.265 141.852C156.681 141.854 157.062 141.738 157.405 141.503C157.752 141.272 158.029 140.958 158.236 140.561C158.446 140.167 158.552 139.725 158.554 139.236C158.557 138.746 158.455 138.301 158.248 137.903C158.045 137.507 157.771 137.19 157.426 136.953C157.084 136.719 156.705 136.601 156.289 136.599C155.872 136.597 155.491 136.711 155.144 136.943C154.8 137.177 154.523 137.492 154.313 137.889C154.106 138.286 154.002 138.728 153.999 139.215ZM158.812 139.237C158.81 139.662 158.907 140.05 159.105 140.4C159.302 140.75 159.564 141.029 159.891 141.239C160.221 141.452 160.58 141.559 160.969 141.561C161.36 141.563 161.714 141.459 162.031 141.249C162.35 141.042 162.602 140.765 162.788 140.416C162.976 140.068 163.071 139.681 163.073 139.256C163.075 138.833 162.983 138.446 162.798 138.093C162.616 137.743 162.366 137.462 162.049 137.249C161.734 137.04 161.381 136.934 160.989 136.932C160.601 136.93 160.24 137.033 159.909 137.24C159.58 137.449 159.316 137.728 159.115 138.076C158.915 138.427 158.814 138.814 158.812 139.237Z" fill="white"/>
<path d="M163.263 162.345C163.261 162.746 163.169 163.115 162.987 163.451C162.808 163.79 162.537 164.084 162.175 164.333C161.815 164.586 161.361 164.78 160.813 164.915C160.264 165.053 159.62 165.121 158.879 165.118C158.245 165.115 157.616 165.068 156.992 164.976C156.368 164.884 155.799 164.73 155.286 164.514C154.773 164.297 154.362 164.001 154.055 163.626C153.75 163.252 153.599 162.779 153.602 162.21C153.604 161.745 153.711 161.34 153.924 160.995C154.14 160.65 154.435 160.377 154.81 160.177C155.187 159.976 155.621 159.862 156.111 159.834L156.109 160.127C155.466 160.17 154.937 160.375 154.522 160.74C154.107 161.106 153.899 161.596 153.896 162.211C153.892 163.065 154.33 163.712 155.21 164.151C156.089 164.592 157.356 164.817 159.009 164.824L159.009 164.788C158.697 164.688 158.419 164.517 158.175 164.274C157.935 164.031 157.745 163.744 157.605 163.413C157.469 163.082 157.402 162.735 157.403 162.374C157.406 161.878 157.536 161.426 157.795 161.017C158.054 160.611 158.406 160.286 158.851 160.043C159.296 159.804 159.797 159.685 160.354 159.687C160.875 159.69 161.356 159.802 161.799 160.025C162.242 160.25 162.597 160.561 162.865 160.957C163.132 161.356 163.265 161.819 163.263 162.345ZM162.969 162.344C162.971 161.891 162.855 161.486 162.621 161.13C162.387 160.777 162.071 160.497 161.674 160.29C161.277 160.086 160.837 159.983 160.353 159.981C159.857 159.979 159.408 160.084 159.006 160.297C158.607 160.512 158.289 160.802 158.052 161.165C157.817 161.531 157.699 161.941 157.697 162.394C157.695 162.752 157.767 163.084 157.913 163.391C158.062 163.698 158.266 163.959 158.525 164.175C158.784 164.393 159.079 164.549 159.409 164.642C159.742 164.739 160.093 164.753 160.46 164.684C161.012 164.582 161.473 164.421 161.845 164.199C162.216 163.98 162.496 163.712 162.684 163.394C162.872 163.08 162.967 162.73 162.969 162.344ZM163.102 169.467L153.698 169.424L153.699 169.131L162.791 169.172L162.791 169.116L161.46 167.09L161.809 167.092L163.104 169.063L163.102 169.467ZM153.543 175.222C153.546 174.625 153.743 174.112 154.133 173.682C154.524 173.255 155.081 172.927 155.805 172.698C156.528 172.468 157.389 172.356 158.387 172.36C159.385 172.365 160.245 172.485 160.966 172.721C161.687 172.957 162.241 173.29 162.628 173.72C163.015 174.154 163.207 174.669 163.205 175.266C163.202 175.863 163.005 176.375 162.614 176.801C162.224 177.231 161.667 177.561 160.943 177.79C160.22 178.02 159.359 178.132 158.361 178.128C157.363 178.123 156.503 178.003 155.782 177.767C155.06 177.531 154.506 177.196 154.12 176.763C153.733 176.333 153.541 175.819 153.543 175.222ZM153.837 175.224C153.834 176.026 154.233 176.66 155.036 177.125C155.839 177.591 156.948 177.827 158.362 177.834C159.305 177.838 160.115 177.736 160.793 177.528C161.473 177.323 161.995 177.028 162.358 176.644C162.724 176.26 162.908 175.8 162.911 175.264C162.914 174.462 162.515 173.828 161.712 173.363C160.909 172.897 159.8 172.661 158.386 172.654C157.443 172.65 156.631 172.75 155.95 172.955C155.273 173.164 154.751 173.46 154.385 173.844C154.022 174.231 153.84 174.691 153.837 175.224ZM163.044 182.372L153.64 182.33L153.641 182.036L162.733 182.077L162.733 182.022L161.402 179.995L161.751 179.997L163.046 181.968L163.044 182.372Z" fill="white"/>
<g clip-path="url(#clip6_577_155)">
<path d="M221.708 92.3109C221.907 91.8158 222.128 91.0302 222.133 90.0575C222.144 87.5743 220.826 85.8197 218.931 85.8005C217.533 85.7735 216.75 87.0426 216.28 87.9923C215.799 88.963 215.487 89.2923 215.062 89.2904C214.41 89.2775 214.113 88.5 214.116 87.776C214.12 86.7721 214.278 86.2349 214.644 85.4191L214.801 85.0887L212.618 84.727C212.346 85.3155 212.102 86.401 212.087 87.529C212.075 90.1674 213.372 91.891 215.392 91.9204C216.5 91.9354 217.352 91.2673 218.053 89.8217C218.502 88.9442 218.805 88.407 219.261 88.409C219.675 88.4212 220.098 88.8684 220.093 89.8611C220.11 90.6787 219.911 91.2784 219.712 91.7325L219.607 91.9595L221.708 92.3109Z" fill="white"/>
<path d="M212.252 83.1528L212.263 80.6383L221.992 82.255L221.98 84.7693L212.252 83.1528Z" fill="white"/>
<path fill-rule="evenodd" clip-rule="evenodd" d="M221.926 96.8128L221.917 98.7578L212.173 100.742L212.183 98.4143C212.183 98.4143 213.303 98.1915 213.645 98.1208L213.659 94.8924C213.401 94.7979 212.201 94.3581 212.201 94.3581L212.213 91.7197L221.124 95.4949C221.755 95.7566 221.929 96.213 221.926 96.8128ZM218.364 96.6418C218.364 96.6418 216.203 95.8352 215.645 95.6256L215.635 97.7156C216.122 97.6144 218.455 97.1488 218.455 97.1488L219.295 96.9768C219.079 96.9019 218.782 96.7935 218.582 96.7205C218.447 96.6709 218.356 96.6375 218.364 96.6418Z" fill="white"/>
<path d="M222.008 78.582L215.38 76.0895L216.728 75.8265L216.729 75.8263L221.206 74.9672C221.828 74.8252 222.006 74.3811 222.029 73.8328L222.048 69.7872L221.851 69.7449C221.594 70.7305 221.226 71.6114 220.77 72.3826L212.301 74.5856L212.289 77.2447L221.996 81.2409L222.008 78.582Z" fill="white"/>
</g>
</g>
</g>
<defs>
<linearGradient id="paint0_linear_577_155" x1="133.79" y1="189.075" x2="413.909" y2="13" gradientUnits="userSpaceOnUse">
<stop stop-color="#0064FF"/>
<stop offset="0.185417" stop-color="#80B2FF"/>
<stop offset="0.419792" stop-color="#4F6D9C"/>
<stop offset="0.669792" stop-color="#80B2FF"/>
<stop offset="1" stop-color="#0064FF"/>
</linearGradient>
<linearGradient id="paint1_linear_577_155" x1="321.054" y1="302.002" x2="601.173" y2="125.927" gradientUnits="userSpaceOnUse">
<stop stop-color="#010813"/>
<stop offset="0.185417" stop-color="#050F1D"/>
<stop offset="0.419792" stop-color="#10213D"/>
<stop offset="0.669792" stop-color="#132A4E"/>
<stop offset="1" stop-color="#1F4785"/>
</linearGradient>
<linearGradient id="paint2_linear_577_155" x1="240.96" y1="214.943" x2="492.392" y2="56.9001" gradientUnits="userSpaceOnUse">
<stop stop-color="#0044AE"/>
<stop offset="0.185417" stop-color="#042962"/>
<stop offset="0.419792" stop-color="#013586"/>
<stop offset="0.669792" stop-color="#0064FF"/>
<stop offset="1" stop-color="#80B2FF"/>
</linearGradient>
<clipPath id="clip0_577_155">
<rect width="324" height="172" fill="white"/>
</clipPath>
<clipPath id="clip1_577_155">
<rect x="133.79" y="13" width="280.119" height="176.075" rx="9.60408" transform="rotate(44.7883 133.79 13)" fill="white"/>
</clipPath>
<clipPath id="clip2_577_155">
<rect width="35.215" height="19.2082" fill="white" transform="translate(132.174 35.0773) rotate(44.7883)"/>
</clipPath>
<clipPath id="clip3_577_155">
<rect x="321.054" y="125.927" width="280.119" height="176.075" rx="9.60408" transform="rotate(130.93 321.054 125.927)" fill="white"/>
</clipPath>
<clipPath id="clip4_577_155">
<rect width="35.215" height="19.2082" fill="white" transform="translate(298.918 125.8) rotate(130.93)"/>
</clipPath>
<clipPath id="clip5_577_155">
<rect x="240.96" y="56.9001" width="251.431" height="158.043" rx="8.6205" transform="rotate(90.2582 240.96 56.9001)" fill="white"/>
</clipPath>
<clipPath id="clip6_577_155">
<rect width="31.6085" height="17.241" fill="white" transform="translate(225.816 69.7628) rotate(90.2582)"/>
</clipPath>
</defs>
</svg>
